<?xml version="1.0" encoding="UTF-8" standalone="no"?><svg xmlns="http://www.w3.org/2000/svg" xmlns:xlink="http://www.w3.org/1999/xlink" contentScriptType="application/ecmascript" contentStyleType="text/css" height="244px" preserveAspectRatio="none" style="width:127px;height:244px;" version="1.1" viewBox="0 0 127 244" width="127px" zoomAndPan="magnify"><defs><filter height="300%" id="f19sr2hqa03pap" width="300%" x="-1" y="-1"><feGaussianBlur result="blurOut" stdDeviation="2.0"/><feColorMatrix in="blurOut" result="blurOut2" type="matrix" values="0 0 0 0 0 0 0 0 0 0 0 0 0 0 0 0 0 0 .4 0"/><feOffset dx="4.0" dy="4.0" in="blurOut2" result="blurOut3"/><feBlend in="SourceGraphic" in2="blurOut3" mode="normal"/></filter></defs><g><rect fill="#FEFECE" filter="url(#f19sr2hqa03pap)" height="35.0938" style="stroke: #A80036; stroke-width: 1.5;" width="21" x="65" y="8"/><text fill="#000000" font-family="sans-serif" font-size="12" lengthAdjust="spacingAndGlyphs" textLength="7" x="72" y="22.457">A</text><line style="stroke: #A80036; stroke-width: 1.5;" x1="66" x2="85" y1="27.0938" y2="27.0938"/><rect fill="#FEFECE" filter="url(#f19sr2hqa03pap)" height="35.0938" style="stroke: #A80036; stroke-width: 1.5;" width="22" x="35.5" y="103"/><text fill="#000000" font-family="sans-serif" font-size="12" lengthAdjust="spacingAndGlyphs" textLength="8" x="42.5" y="117.457">B</text><line style="stroke: #A80036; stroke-width: 1.5;" x1="36.5" x2="56.5" y1="122.0938" y2="122.0938"/><rect fill="#FEFECE" filter="url(#f19sr2hqa03pap)" height="35.0938" style="stroke: #A80036; stroke-width: 1.5;" width="23" x="93" y="103"/><text fill="#000000" font-family="sans-serif" font-size="12" lengthAdjust="spacingAndGlyphs" textLength="9" x="100" y="117.457">C</text><line style="stroke: #A80036; stroke-width: 1.5;" x1="94" x2="115" y1="122.0938" y2="122.0938"/><rect fill="#FEFECE" filter="url(#f19sr2hqa03pap)" height="35.0938" style="stroke: #A80036; stroke-width: 1.5;" width="23" x="6" y="198"/><text fill="#000000" font-family="sans-serif" font-size="12" lengthAdjust="spacingAndGlyphs" textLength="9" x="13" y="212.457">D</text><line style="stroke: #A80036; stroke-width: 1.5;" x1="7" x2="28" y1="217.0938" y2="217.0938"/><rect fill="#FEFECE" filter="url(#f19sr2hqa03pap)" height="35.0938" style="stroke: #A80036; stroke-width: 1.5;" width="22" x="64.5" y="198"/><text fill="#000000" font-family="sans-serif" font-size="12" lengthAdjust="spacingAndGlyphs" textLength="8" x="71.5" y="212.457">E</text><line style="stroke: #A80036; stroke-width: 1.5;" x1="65.5" x2="85.5" y1="217.0938" y2="217.0938"/><!--link A to B--><path d="M70.3154,43.127 C65.5612,58.373 58.4901,81.049 53.2875,97.733 " fill="none" id="A-B" style="stroke: #A80036; stroke-width: 1.0;"/><polygon fill="#A80036" points="51.7375,102.704,58.2355,95.303,53.2261,97.9307,50.5983,92.9212,51.7375,102.704" style="stroke: #A80036; stroke-width: 1.0;"/><!--link A to C--><path d="M80.6846,43.127 C85.4388,58.373 92.5099,81.049 97.7125,97.733 " fill="none" id="A-C" style="stroke: #A80036; stroke-width: 1.0;"/><polygon fill="#A80036" points="99.2625,102.704,100.4017,92.9212,97.7739,97.9307,92.7645,95.303,99.2625,102.704" style="stroke: #A80036; stroke-width: 1.0;"/><!--link B to D--><path d="M41.3154,138.1265 C36.5612,153.3727 29.4901,176.0489 24.2875,192.7332 " fill="none" id="B-D" style="stroke: #A80036; stroke-width: 1.0;"/><polygon fill="#A80036" points="22.7375,197.7038,29.2355,190.3028,24.2261,192.9305,21.5983,187.921,22.7375,197.7038" style="stroke: #A80036; stroke-width: 1.0;"/><!--link B to E--><path d="M51.6846,138.1265 C56.4388,153.3727 63.5099,176.0489 68.7125,192.7332 " fill="none" id="B-E" style="stroke: #A80036; stroke-width: 1.0;"/><polygon fill="#A80036" points="70.2625,197.7038,71.4017,187.921,68.7739,192.9305,63.7645,190.3028,70.2625,197.7038" style="stroke: #A80036; stroke-width: 1.0;"/><!--
@startuml
object A
object B
object C
object D
object E
A -down-> B
A -down-> C
B -down-> D
B -down-> E
@enduml

PlantUML version 1.2019.05(Sat Apr 20 18:45:36 CEST 2019)
(GPL source distribution)
Java Runtime: OpenJDK Runtime Environment
JVM: OpenJDK 64-Bit Server VM
Java Version: 1.8.0_222-b10
Operating System: Windows 10
OS Version: 10.0
Default Encoding: windows-1252
Language: es
Country: ES
--></g></svg>