<?xml version="1.0" encoding="UTF-8" standalone="no"?><svg xmlns="http://www.w3.org/2000/svg" xmlns:xlink="http://www.w3.org/1999/xlink" contentScriptType="application/ecmascript" contentStyleType="text/css" height="434px" preserveAspectRatio="none" style="width:137px;height:434px;" version="1.1" viewBox="0 0 137 434" width="137px" zoomAndPan="magnify"><defs><filter height="300%" id="fpjmy7iu2td36" width="300%" x="-1" y="-1"><feGaussianBlur result="blurOut" stdDeviation="2.0"/><feColorMatrix in="blurOut" result="blurOut2" type="matrix" values="0 0 0 0 0 0 0 0 0 0 0 0 0 0 0 0 0 0 .4 0"/><feOffset dx="4.0" dy="4.0" in="blurOut2" result="blurOut3"/><feBlend in="SourceGraphic" in2="blurOut3" mode="normal"/></filter></defs><g><rect fill="#FEFECE" filter="url(#fpjmy7iu2td36)" height="35.0938" style="stroke: #A80036; stroke-width: 1.5;" width="21" x="91.5304" y="8"/><text fill="#000000" font-family="sans-serif" font-size="12" lengthAdjust="spacingAndGlyphs" textLength="7" x="98.5304" y="22.457">A</text><line style="stroke: #A80036; stroke-width: 1.5;" x1="92.5304" x2="111.5304" y1="27.0938" y2="27.0938"/><rect fill="#FEFECE" filter="url(#fpjmy7iu2td36)" height="35.0938" style="stroke: #A80036; stroke-width: 1.5;" width="22" x="58.0304" y="293"/><text fill="#000000" font-family="sans-serif" font-size="12" lengthAdjust="spacingAndGlyphs" textLength="8" x="65.0304" y="307.457">B</text><line style="stroke: #A80036; stroke-width: 1.5;" x1="59.0304" x2="79.0304" y1="312.0938" y2="312.0938"/><rect fill="#FEFECE" filter="url(#fpjmy7iu2td36)" height="35.0938" style="stroke: #A80036; stroke-width: 1.5;" width="23" x="25.5304" y="198"/><text fill="#000000" font-family="sans-serif" font-size="12" lengthAdjust="spacingAndGlyphs" textLength="9" x="32.5304" y="212.457">C</text><line style="stroke: #A80036; stroke-width: 1.5;" x1="26.5304" x2="47.5304" y1="217.0938" y2="217.0938"/><rect fill="#FEFECE" filter="url(#fpjmy7iu2td36)" height="35.0938" style="stroke: #A80036; stroke-width: 1.5;" width="23" x="25.5304" y="103"/><text fill="#000000" font-family="sans-serif" font-size="12" lengthAdjust="spacingAndGlyphs" textLength="9" x="32.5304" y="117.457">D</text><line style="stroke: #A80036; stroke-width: 1.5;" x1="26.5304" x2="47.5304" y1="122.0938" y2="122.0938"/><rect fill="#FEFECE" filter="url(#fpjmy7iu2td36)" height="35.0938" style="stroke: #A80036; stroke-width: 1.5;" width="22" x="58.0304" y="388"/><text fill="#000000" font-family="sans-serif" font-size="12" lengthAdjust="spacingAndGlyphs" textLength="8" x="65.0304" y="402.457">E</text><line style="stroke: #A80036; stroke-width: 1.5;" x1="59.0304" x2="79.0304" y1="407.0938" y2="407.0938"/><!--link A to D--><path d="M91.297,41.857 C80.4604,57.362 63.6484,81.416 51.6095,98.641 " fill="none" id="A-D" style="stroke: #A80036; stroke-width: 1.0;"/><polygon fill="#A80036" points="48.6581,102.863,57.0925,97.7777,51.5224,98.7648,50.5353,93.1947,48.6581,102.863" style="stroke: #A80036; stroke-width: 1.0;"/><!--link A to E--><path d="M106.526,43.058 C110.457,58.449 115.866,82.08 118.03,103 C125.612,176.282 108.729,278.145 97.0304,328 C92.5603,347.0506 84.7432,367.8548 78.5027,382.9522 " fill="none" id="A-E" style="stroke: #A80036; stroke-width: 1.0;"/><polygon fill="#A80036" points="76.4539,387.8427,83.6208,381.0873,78.3859,383.231,76.2421,377.9961,76.4539,387.8427" style="stroke: #A80036; stroke-width: 1.0;"/><!--link E to D--><path d="M60.894,387.9953 C46.6392,358.0215 17.7417,292.253 8.0304,233 C5.5145,217.649 5.2276,213.301 8.0304,198 C11.5714,178.67 19.7558,157.888 26.5301,142.871 " fill="none" id="E-D" style="stroke: #A80036; stroke-width: 1.0;"/><polygon fill="#A80036" points="28.7647,138.009,21.371,144.5154,26.6762,142.5519,28.6397,147.8571,28.7647,138.009" style="stroke: #A80036; stroke-width: 1.0;"/><!--link B to E--><path d="M69.0304,328.1265 C69.0304,343.2412 69.0304,365.6585 69.0304,382.3004 " fill="none" id="B-E" style="stroke: #A80036; stroke-width: 1.0;"/><polygon fill="#A80036" points="69.0304,387.7038,73.0304,378.7038,69.0304,382.7038,65.0304,378.7038,69.0304,387.7038" style="stroke: #A80036; stroke-width: 1.0;"/><!--link C to B--><path d="M42.7514,233.127 C47.9974,248.373 55.7999,271.049 61.5408,287.733 " fill="none" id="C-B" style="stroke: #A80036; stroke-width: 1.0;"/><polygon fill="#A80036" points="63.2511,292.704,64.1046,282.8922,61.624,287.9761,56.5401,285.4955,63.2511,292.704" style="stroke: #A80036; stroke-width: 1.0;"/><!--link D to C--><path d="M37.0304,138.127 C37.0304,153.241 37.0304,175.658 37.0304,192.3 " fill="none" id="D-C" style="stroke: #A80036; stroke-width: 1.0;"/><polygon fill="#A80036" points="37.0304,197.704,41.0304,188.704,37.0304,192.704,33.0304,188.704,37.0304,197.704" style="stroke: #A80036; stroke-width: 1.0;"/><!--link B to A--><path d="M70.9856,292.733 C76.6585,244.083 93.1222,102.895 99.4817,48.357 " fill="none" id="B-A" style="stroke: #A80036; stroke-width: 1.0;"/><polygon fill="#A80036" points="100.0649,43.355,95.0479,51.8303,99.4849,48.3212,102.9939,52.7582,100.0649,43.355" style="stroke: #A80036; stroke-width: 1.0;"/><!--
@startuml
object A
object B
object C
object D
object E
A - -> D
A - -> E
E - -> D
B - -> E
C - -> B
D - -> C
B - -> A
@enduml

PlantUML version 1.2019.05(Sat Apr 20 18:45:36 CEST 2019)
(GPL source distribution)
Java Runtime: OpenJDK Runtime Environment
JVM: OpenJDK 64-Bit Server VM
Java Version: 1.8.0_222-b10
Operating System: Windows 10
OS Version: 10.0
Default Encoding: windows-1252
Language: es
Country: ES
--></g></svg>