<?xml version="1.0" encoding="UTF-8" standalone="no"?><svg xmlns="http://www.w3.org/2000/svg" xmlns:xlink="http://www.w3.org/1999/xlink" contentScriptType="application/ecmascript" contentStyleType="text/css" height="54px" preserveAspectRatio="none" style="width:269px;height:54px;" version="1.1" viewBox="0 0 269 54" width="269px" zoomAndPan="magnify"><defs><filter height="300%" id="fybhuli5g1hzt" width="300%" x="-1" y="-1"><feGaussianBlur result="blurOut" stdDeviation="2.0"/><feColorMatrix in="blurOut" result="blurOut2" type="matrix" values="0 0 0 0 0 0 0 0 0 0 0 0 0 0 0 0 0 0 .4 0"/><feOffset dx="4.0" dy="4.0" in="blurOut2" result="blurOut3"/><feBlend in="SourceGraphic" in2="blurOut3" mode="normal"/></filter></defs><g><rect fill="#FEFECE" filter="url(#fybhuli5g1hzt)" height="35.0938" style="stroke: #A80036; stroke-width: 1.5;" width="21" x="6" y="8"/><text fill="#000000" font-family="sans-serif" font-size="12" lengthAdjust="spacingAndGlyphs" textLength="7" x="13" y="22.457">A</text><line style="stroke: #A80036; stroke-width: 1.5;" x1="7" x2="26" y1="27.0938" y2="27.0938"/><rect fill="#FEFECE" filter="url(#fybhuli5g1hzt)" height="35.0938" style="stroke: #A80036; stroke-width: 1.5;" width="22" x="62.5" y="8"/><text fill="#000000" font-family="sans-serif" font-size="12" lengthAdjust="spacingAndGlyphs" textLength="8" x="69.5" y="22.457">B</text><line style="stroke: #A80036; stroke-width: 1.5;" x1="63.5" x2="83.5" y1="27.0938" y2="27.0938"/><rect fill="#FEFECE" filter="url(#fybhuli5g1hzt)" height="35.0938" style="stroke: #A80036; stroke-width: 1.5;" width="23" x="120" y="8"/><text fill="#000000" font-family="sans-serif" font-size="12" lengthAdjust="spacingAndGlyphs" textLength="9" x="127" y="22.457">C</text><line style="stroke: #A80036; stroke-width: 1.5;" x1="121" x2="142" y1="27.0938" y2="27.0938"/><rect fill="#FEFECE" filter="url(#fybhuli5g1hzt)" height="35.0938" style="stroke: #A80036; stroke-width: 1.5;" width="23" x="178" y="8"/><text fill="#000000" font-family="sans-serif" font-size="12" lengthAdjust="spacingAndGlyphs" textLength="9" x="185" y="22.457">D</text><line style="stroke: #A80036; stroke-width: 1.5;" x1="179" x2="200" y1="27.0938" y2="27.0938"/><rect fill="#FEFECE" filter="url(#fybhuli5g1hzt)" height="35.0938" style="stroke: #A80036; stroke-width: 1.5;" width="22" x="236.5" y="8"/><text fill="#000000" font-family="sans-serif" font-size="12" lengthAdjust="spacingAndGlyphs" textLength="8" x="243.5" y="22.457">E</text><line style="stroke: #A80036; stroke-width: 1.5;" x1="237.5" x2="257.5" y1="27.0938" y2="27.0938"/><!--link A to B--><path d="M27.1875,25.5 C37.1497,25.5 47.1119,25.5 57.0741,25.5 " fill="none" id="A-B" style="stroke: #A80036; stroke-width: 1.0;"/><polygon fill="#A80036" points="62.2837,25.5,53.2837,21.5,57.2837,25.5,53.2837,29.5,62.2837,25.5" style="stroke: #A80036; stroke-width: 1.0;"/><!--link B to C--><path d="M84.8281,25.5 C94.7641,25.5 104.7001,25.5 114.636,25.5 " fill="none" id="B-C" style="stroke: #A80036; stroke-width: 1.0;"/><polygon fill="#A80036" points="119.832,25.5,110.832,21.5,114.832,25.5,110.832,29.5,119.832,25.5" style="stroke: #A80036; stroke-width: 1.0;"/><!--link C to D--><path d="M143.281,25.5 C153.121,25.5 162.96,25.5 172.8,25.5 " fill="none" id="C-D" style="stroke: #A80036; stroke-width: 1.0;"/><polygon fill="#A80036" points="177.945,25.5,168.945,21.5,172.945,25.5,168.945,29.5,177.945,25.5" style="stroke: #A80036; stroke-width: 1.0;"/><!--link D to E--><path d="M201.281,25.5 C211.223,25.5 221.165,25.5 231.107,25.5 " fill="none" id="D-E" style="stroke: #A80036; stroke-width: 1.0;"/><polygon fill="#A80036" points="236.306,25.5,227.306,21.5,231.306,25.5,227.306,29.5,236.306,25.5" style="stroke: #A80036; stroke-width: 1.0;"/><!--
@startuml
object A
object B
object C
object D
object E
A -right-> B
B -right-> C
C -right-> D
D -right-> E
@enduml

PlantUML version 1.2019.05(Sat Apr 20 18:45:36 CEST 2019)
(GPL source distribution)
Java Runtime: OpenJDK Runtime Environment
JVM: OpenJDK 64-Bit Server VM
Java Version: 1.8.0_222-b10
Operating System: Windows 10
OS Version: 10.0
Default Encoding: windows-1252
Language: es
Country: ES
--></g></svg>