<?xml version="1.0" encoding="UTF-8" standalone="no"?><svg xmlns="http://www.w3.org/2000/svg" xmlns:xlink="http://www.w3.org/1999/xlink" contentScriptType="application/ecmascript" contentStyleType="text/css" height="818px" preserveAspectRatio="none" style="width:1199px;height:818px;" version="1.1" viewBox="0 0 1199 818" width="1199px" zoomAndPan="magnify"><defs><filter height="300%" id="f6ons8j326f73" width="300%" x="-1" y="-1"><feGaussianBlur result="blurOut" stdDeviation="2.0"/><feColorMatrix in="blurOut" result="blurOut2" type="matrix" values="0 0 0 0 0 0 0 0 0 0 0 0 0 0 0 0 0 0 .4 0"/><feOffset dx="4.0" dy="4.0" in="blurOut2" result="blurOut3"/><feBlend in="SourceGraphic" in2="blurOut3" mode="normal"/></filter></defs><g><!--class Conjunto--><rect fill="#FEFECE" filter="url(#f6ons8j326f73)" height="48" id="Conjunto" style="stroke: #A80036; stroke-width: 1.5;" width="82" x="795" y="8"/><ellipse cx="810" cy="24" fill="#ADD1B2" rx="11" ry="11" style="stroke: #A80036; stroke-width: 1.0;"/><path d="M812.7656,19.875 Q812.9219,19.6563 813.1094,19.5469 Q813.2969,19.4375 813.5156,19.4375 Q813.8906,19.4375 814.125,19.6953 Q814.3594,19.9531 814.3594,20.5625 L814.3594,22.0156 Q814.3594,22.625 814.125,22.8906 Q813.8906,23.1563 813.5156,23.1563 Q813.1719,23.1563 812.9688,22.9531 Q812.7656,22.7656 812.6563,22.25 Q812.6094,21.8906 812.4219,21.7031 Q812.0938,21.3281 811.4844,21.1094 Q810.875,20.8906 810.25,20.8906 Q809.4844,20.8906 808.8516,21.2188 Q808.2188,21.5469 807.7266,22.2969 Q807.2344,23.0469 807.2344,24.0781 L807.2344,25.1719 Q807.2344,26.4063 808.125,27.2266 Q809.0156,28.0469 810.6094,28.0469 Q811.5469,28.0469 812.2031,27.7969 Q812.5938,27.6406 813.0156,27.2031 Q813.2813,26.9375 813.4297,26.8594 Q813.5781,26.7813 813.7813,26.7813 Q814.1094,26.7813 814.3672,27.0391 Q814.625,27.2969 814.625,27.6406 Q814.625,27.9844 814.2813,28.3906 Q813.7813,28.9688 812.9844,29.2969 Q811.9063,29.75 810.6094,29.75 Q809.0938,29.75 807.8906,29.125 Q806.9063,28.625 806.2188,27.5547 Q805.5313,26.4844 805.5313,25.2031 L805.5313,24.0469 Q805.5313,22.7188 806.1484,21.5703 Q806.7656,20.4219 807.8594,19.8047 Q808.9531,19.1875 810.1875,19.1875 Q810.9219,19.1875 811.5703,19.3516 Q812.2188,19.5156 812.7656,19.875 Z "/><text fill="#000000" font-family="sans-serif" font-size="12" lengthAdjust="spacingAndGlyphs" textLength="50" x="824" y="28.9102">Conjunto</text><line style="stroke: #A80036; stroke-width: 1.5;" x1="796" x2="876" y1="40" y2="40"/><line style="stroke: #A80036; stroke-width: 1.5;" x1="796" x2="876" y1="48" y2="48"/><!--class Patrón--><rect fill="#FEFECE" filter="url(#f6ons8j326f73)" height="48" id="Patrón" style="stroke: #A80036; stroke-width: 1.5;" width="68" x="569" y="247"/><ellipse cx="584" cy="263" fill="#ADD1B2" rx="11" ry="11" style="stroke: #A80036; stroke-width: 1.0;"/><path d="M586.7656,258.875 Q586.9219,258.6563 587.1094,258.5469 Q587.2969,258.4375 587.5156,258.4375 Q587.8906,258.4375 588.125,258.6953 Q588.3594,258.9531 588.3594,259.5625 L588.3594,261.0156 Q588.3594,261.625 588.125,261.8906 Q587.8906,262.1563 587.5156,262.1563 Q587.1719,262.1563 586.9688,261.9531 Q586.7656,261.7656 586.6563,261.25 Q586.6094,260.8906 586.4219,260.7031 Q586.0938,260.3281 585.4844,260.1094 Q584.875,259.8906 584.25,259.8906 Q583.4844,259.8906 582.8516,260.2188 Q582.2188,260.5469 581.7266,261.2969 Q581.2344,262.0469 581.2344,263.0781 L581.2344,264.1719 Q581.2344,265.4063 582.125,266.2266 Q583.0156,267.0469 584.6094,267.0469 Q585.5469,267.0469 586.2031,266.7969 Q586.5938,266.6406 587.0156,266.2031 Q587.2813,265.9375 587.4297,265.8594 Q587.5781,265.7813 587.7813,265.7813 Q588.1094,265.7813 588.3672,266.0391 Q588.625,266.2969 588.625,266.6406 Q588.625,266.9844 588.2813,267.3906 Q587.7813,267.9688 586.9844,268.2969 Q585.9063,268.75 584.6094,268.75 Q583.0938,268.75 581.8906,268.125 Q580.9063,267.625 580.2188,266.5547 Q579.5313,265.4844 579.5313,264.2031 L579.5313,263.0469 Q579.5313,261.7188 580.1484,260.5703 Q580.7656,259.4219 581.8594,258.8047 Q582.9531,258.1875 584.1875,258.1875 Q584.9219,258.1875 585.5703,258.3516 Q586.2188,258.5156 586.7656,258.875 Z "/><text fill="#000000" font-family="sans-serif" font-size="12" lengthAdjust="spacingAndGlyphs" textLength="36" x="598" y="267.9102">Patrón</text><line style="stroke: #A80036; stroke-width: 1.5;" x1="570" x2="636" y1="279" y2="279"/><line style="stroke: #A80036; stroke-width: 1.5;" x1="570" x2="636" y1="287" y2="287"/><!--class Alternativo--><rect fill="#FEFECE" filter="url(#f6ons8j326f73)" height="48" id="Alternativo" style="stroke: #A80036; stroke-width: 1.5;" width="88" x="6" y="377"/><ellipse cx="21" cy="393" fill="#ADD1B2" rx="11" ry="11" style="stroke: #A80036; stroke-width: 1.0;"/><path d="M23.7656,388.875 Q23.9219,388.6563 24.1094,388.5469 Q24.2969,388.4375 24.5156,388.4375 Q24.8906,388.4375 25.125,388.6953 Q25.3594,388.9531 25.3594,389.5625 L25.3594,391.0156 Q25.3594,391.625 25.125,391.8906 Q24.8906,392.1563 24.5156,392.1563 Q24.1719,392.1563 23.9688,391.9531 Q23.7656,391.7656 23.6563,391.25 Q23.6094,390.8906 23.4219,390.7031 Q23.0938,390.3281 22.4844,390.1094 Q21.875,389.8906 21.25,389.8906 Q20.4844,389.8906 19.8516,390.2188 Q19.2188,390.5469 18.7266,391.2969 Q18.2344,392.0469 18.2344,393.0781 L18.2344,394.1719 Q18.2344,395.4063 19.125,396.2266 Q20.0156,397.0469 21.6094,397.0469 Q22.5469,397.0469 23.2031,396.7969 Q23.5938,396.6406 24.0156,396.2031 Q24.2813,395.9375 24.4297,395.8594 Q24.5781,395.7813 24.7813,395.7813 Q25.1094,395.7813 25.3672,396.0391 Q25.625,396.2969 25.625,396.6406 Q25.625,396.9844 25.2813,397.3906 Q24.7813,397.9688 23.9844,398.2969 Q22.9063,398.75 21.6094,398.75 Q20.0938,398.75 18.8906,398.125 Q17.9063,397.625 17.2188,396.5547 Q16.5313,395.4844 16.5313,394.2031 L16.5313,393.0469 Q16.5313,391.7188 17.1484,390.5703 Q17.7656,389.4219 18.8594,388.8047 Q19.9531,388.1875 21.1875,388.1875 Q21.9219,388.1875 22.5703,388.3516 Q23.2188,388.5156 23.7656,388.875 Z "/><text fill="#000000" font-family="sans-serif" font-size="12" lengthAdjust="spacingAndGlyphs" textLength="56" x="35" y="397.9102">Alternativo</text><line style="stroke: #A80036; stroke-width: 1.5;" x1="7" x2="93" y1="409" y2="409"/><line style="stroke: #A80036; stroke-width: 1.5;" x1="7" x2="93" y1="417" y2="417"/><!--class Secuencial--><rect fill="#FEFECE" filter="url(#f6ons8j326f73)" height="48" id="Secuencial" style="stroke: #A80036; stroke-width: 1.5;" width="93" x="129.5" y="377"/><ellipse cx="144.5" cy="393" fill="#ADD1B2" rx="11" ry="11" style="stroke: #A80036; stroke-width: 1.0;"/><path d="M147.2656,388.875 Q147.4219,388.6563 147.6094,388.5469 Q147.7969,388.4375 148.0156,388.4375 Q148.3906,388.4375 148.625,388.6953 Q148.8594,388.9531 148.8594,389.5625 L148.8594,391.0156 Q148.8594,391.625 148.625,391.8906 Q148.3906,392.1563 148.0156,392.1563 Q147.6719,392.1563 147.4688,391.9531 Q147.2656,391.7656 147.1563,391.25 Q147.1094,390.8906 146.9219,390.7031 Q146.5938,390.3281 145.9844,390.1094 Q145.375,389.8906 144.75,389.8906 Q143.9844,389.8906 143.3516,390.2188 Q142.7188,390.5469 142.2266,391.2969 Q141.7344,392.0469 141.7344,393.0781 L141.7344,394.1719 Q141.7344,395.4063 142.625,396.2266 Q143.5156,397.0469 145.1094,397.0469 Q146.0469,397.0469 146.7031,396.7969 Q147.0938,396.6406 147.5156,396.2031 Q147.7813,395.9375 147.9297,395.8594 Q148.0781,395.7813 148.2813,395.7813 Q148.6094,395.7813 148.8672,396.0391 Q149.125,396.2969 149.125,396.6406 Q149.125,396.9844 148.7813,397.3906 Q148.2813,397.9688 147.4844,398.2969 Q146.4063,398.75 145.1094,398.75 Q143.5938,398.75 142.3906,398.125 Q141.4063,397.625 140.7188,396.5547 Q140.0313,395.4844 140.0313,394.2031 L140.0313,393.0469 Q140.0313,391.7188 140.6484,390.5703 Q141.2656,389.4219 142.3594,388.8047 Q143.4531,388.1875 144.6875,388.1875 Q145.4219,388.1875 146.0703,388.3516 Q146.7188,388.5156 147.2656,388.875 Z "/><text fill="#000000" font-family="sans-serif" font-size="12" lengthAdjust="spacingAndGlyphs" textLength="61" x="158.5" y="397.9102">Secuencial</text><line style="stroke: #A80036; stroke-width: 1.5;" x1="130.5" x2="221.5" y1="409" y2="409"/><line style="stroke: #A80036; stroke-width: 1.5;" x1="130.5" x2="221.5" y1="417" y2="417"/><!--class Iterativo--><rect fill="#FEFECE" filter="url(#f6ons8j326f73)" height="48" id="Iterativo" style="stroke: #A80036; stroke-width: 1.5;" width="74" x="258" y="377"/><ellipse cx="273" cy="393" fill="#ADD1B2" rx="11" ry="11" style="stroke: #A80036; stroke-width: 1.0;"/><path d="M275.7656,388.875 Q275.9219,388.6563 276.1094,388.5469 Q276.2969,388.4375 276.5156,388.4375 Q276.8906,388.4375 277.125,388.6953 Q277.3594,388.9531 277.3594,389.5625 L277.3594,391.0156 Q277.3594,391.625 277.125,391.8906 Q276.8906,392.1563 276.5156,392.1563 Q276.1719,392.1563 275.9688,391.9531 Q275.7656,391.7656 275.6563,391.25 Q275.6094,390.8906 275.4219,390.7031 Q275.0938,390.3281 274.4844,390.1094 Q273.875,389.8906 273.25,389.8906 Q272.4844,389.8906 271.8516,390.2188 Q271.2188,390.5469 270.7266,391.2969 Q270.2344,392.0469 270.2344,393.0781 L270.2344,394.1719 Q270.2344,395.4063 271.125,396.2266 Q272.0156,397.0469 273.6094,397.0469 Q274.5469,397.0469 275.2031,396.7969 Q275.5938,396.6406 276.0156,396.2031 Q276.2813,395.9375 276.4297,395.8594 Q276.5781,395.7813 276.7813,395.7813 Q277.1094,395.7813 277.3672,396.0391 Q277.625,396.2969 277.625,396.6406 Q277.625,396.9844 277.2813,397.3906 Q276.7813,397.9688 275.9844,398.2969 Q274.9063,398.75 273.6094,398.75 Q272.0938,398.75 270.8906,398.125 Q269.9063,397.625 269.2188,396.5547 Q268.5313,395.4844 268.5313,394.2031 L268.5313,393.0469 Q268.5313,391.7188 269.1484,390.5703 Q269.7656,389.4219 270.8594,388.8047 Q271.9531,388.1875 273.1875,388.1875 Q273.9219,388.1875 274.5703,388.3516 Q275.2188,388.5156 275.7656,388.875 Z "/><text fill="#000000" font-family="sans-serif" font-size="12" lengthAdjust="spacingAndGlyphs" textLength="42" x="287" y="397.9102">Iterativo</text><line style="stroke: #A80036; stroke-width: 1.5;" x1="259" x2="331" y1="409" y2="409"/><line style="stroke: #A80036; stroke-width: 1.5;" x1="259" x2="331" y1="417" y2="417"/><!--class Recurrente--><rect fill="#FEFECE" filter="url(#f6ons8j326f73)" height="48" id="Recurrente" style="stroke: #A80036; stroke-width: 1.5;" width="93" x="367.5" y="377"/><ellipse cx="382.5" cy="393" fill="#ADD1B2" rx="11" ry="11" style="stroke: #A80036; stroke-width: 1.0;"/><path d="M385.2656,388.875 Q385.4219,388.6563 385.6094,388.5469 Q385.7969,388.4375 386.0156,388.4375 Q386.3906,388.4375 386.625,388.6953 Q386.8594,388.9531 386.8594,389.5625 L386.8594,391.0156 Q386.8594,391.625 386.625,391.8906 Q386.3906,392.1563 386.0156,392.1563 Q385.6719,392.1563 385.4688,391.9531 Q385.2656,391.7656 385.1563,391.25 Q385.1094,390.8906 384.9219,390.7031 Q384.5938,390.3281 383.9844,390.1094 Q383.375,389.8906 382.75,389.8906 Q381.9844,389.8906 381.3516,390.2188 Q380.7188,390.5469 380.2266,391.2969 Q379.7344,392.0469 379.7344,393.0781 L379.7344,394.1719 Q379.7344,395.4063 380.625,396.2266 Q381.5156,397.0469 383.1094,397.0469 Q384.0469,397.0469 384.7031,396.7969 Q385.0938,396.6406 385.5156,396.2031 Q385.7813,395.9375 385.9297,395.8594 Q386.0781,395.7813 386.2813,395.7813 Q386.6094,395.7813 386.8672,396.0391 Q387.125,396.2969 387.125,396.6406 Q387.125,396.9844 386.7813,397.3906 Q386.2813,397.9688 385.4844,398.2969 Q384.4063,398.75 383.1094,398.75 Q381.5938,398.75 380.3906,398.125 Q379.4063,397.625 378.7188,396.5547 Q378.0313,395.4844 378.0313,394.2031 L378.0313,393.0469 Q378.0313,391.7188 378.6484,390.5703 Q379.2656,389.4219 380.3594,388.8047 Q381.4531,388.1875 382.6875,388.1875 Q383.4219,388.1875 384.0703,388.3516 Q384.7188,388.5156 385.2656,388.875 Z "/><text fill="#000000" font-family="sans-serif" font-size="12" lengthAdjust="spacingAndGlyphs" textLength="61" x="396.5" y="397.9102">Recurrente</text><line style="stroke: #A80036; stroke-width: 1.5;" x1="368.5" x2="459.5" y1="409" y2="409"/><line style="stroke: #A80036; stroke-width: 1.5;" x1="368.5" x2="459.5" y1="417" y2="417"/><!--class Recursivo--><rect fill="#FEFECE" filter="url(#f6ons8j326f73)" height="48" id="Recursivo" style="stroke: #A80036; stroke-width: 1.5;" width="87" x="495.5" y="377"/><ellipse cx="510.5" cy="393" fill="#ADD1B2" rx="11" ry="11" style="stroke: #A80036; stroke-width: 1.0;"/><path d="M513.2656,388.875 Q513.4219,388.6563 513.6094,388.5469 Q513.7969,388.4375 514.0156,388.4375 Q514.3906,388.4375 514.625,388.6953 Q514.8594,388.9531 514.8594,389.5625 L514.8594,391.0156 Q514.8594,391.625 514.625,391.8906 Q514.3906,392.1563 514.0156,392.1563 Q513.6719,392.1563 513.4688,391.9531 Q513.2656,391.7656 513.1563,391.25 Q513.1094,390.8906 512.9219,390.7031 Q512.5938,390.3281 511.9844,390.1094 Q511.375,389.8906 510.75,389.8906 Q509.9844,389.8906 509.3516,390.2188 Q508.7188,390.5469 508.2266,391.2969 Q507.7344,392.0469 507.7344,393.0781 L507.7344,394.1719 Q507.7344,395.4063 508.625,396.2266 Q509.5156,397.0469 511.1094,397.0469 Q512.0469,397.0469 512.7031,396.7969 Q513.0938,396.6406 513.5156,396.2031 Q513.7813,395.9375 513.9297,395.8594 Q514.0781,395.7813 514.2813,395.7813 Q514.6094,395.7813 514.8672,396.0391 Q515.125,396.2969 515.125,396.6406 Q515.125,396.9844 514.7813,397.3906 Q514.2813,397.9688 513.4844,398.2969 Q512.4063,398.75 511.1094,398.75 Q509.5938,398.75 508.3906,398.125 Q507.4063,397.625 506.7188,396.5547 Q506.0313,395.4844 506.0313,394.2031 L506.0313,393.0469 Q506.0313,391.7188 506.6484,390.5703 Q507.2656,389.4219 508.3594,388.8047 Q509.4531,388.1875 510.6875,388.1875 Q511.4219,388.1875 512.0703,388.3516 Q512.7188,388.5156 513.2656,388.875 Z "/><text fill="#000000" font-family="sans-serif" font-size="12" lengthAdjust="spacingAndGlyphs" textLength="55" x="524.5" y="397.9102">Recursivo</text><line style="stroke: #A80036; stroke-width: 1.5;" x1="496.5" x2="581.5" y1="409" y2="409"/><line style="stroke: #A80036; stroke-width: 1.5;" x1="496.5" x2="581.5" y1="417" y2="417"/><!--class Modelo--><rect fill="#FEFECE" filter="url(#f6ons8j326f73)" height="48" id="Modelo" style="stroke: #A80036; stroke-width: 1.5;" width="72" x="857" y="117"/><ellipse cx="872" cy="133" fill="#ADD1B2" rx="11" ry="11" style="stroke: #A80036; stroke-width: 1.0;"/><path d="M874.7656,128.875 Q874.9219,128.6563 875.1094,128.5469 Q875.2969,128.4375 875.5156,128.4375 Q875.8906,128.4375 876.125,128.6953 Q876.3594,128.9531 876.3594,129.5625 L876.3594,131.0156 Q876.3594,131.625 876.125,131.8906 Q875.8906,132.1563 875.5156,132.1563 Q875.1719,132.1563 874.9688,131.9531 Q874.7656,131.7656 874.6563,131.25 Q874.6094,130.8906 874.4219,130.7031 Q874.0938,130.3281 873.4844,130.1094 Q872.875,129.8906 872.25,129.8906 Q871.4844,129.8906 870.8516,130.2188 Q870.2188,130.5469 869.7266,131.2969 Q869.2344,132.0469 869.2344,133.0781 L869.2344,134.1719 Q869.2344,135.4063 870.125,136.2266 Q871.0156,137.0469 872.6094,137.0469 Q873.5469,137.0469 874.2031,136.7969 Q874.5938,136.6406 875.0156,136.2031 Q875.2813,135.9375 875.4297,135.8594 Q875.5781,135.7813 875.7813,135.7813 Q876.1094,135.7813 876.3672,136.0391 Q876.625,136.2969 876.625,136.6406 Q876.625,136.9844 876.2813,137.3906 Q875.7813,137.9688 874.9844,138.2969 Q873.9063,138.75 872.6094,138.75 Q871.0938,138.75 869.8906,138.125 Q868.9063,137.625 868.2188,136.5547 Q867.5313,135.4844 867.5313,134.2031 L867.5313,133.0469 Q867.5313,131.7188 868.1484,130.5703 Q868.7656,129.4219 869.8594,128.8047 Q870.9531,128.1875 872.1875,128.1875 Q872.9219,128.1875 873.5703,128.3516 Q874.2188,128.5156 874.7656,128.875 Z "/><text fill="#000000" font-family="sans-serif" font-size="12" lengthAdjust="spacingAndGlyphs" textLength="40" x="886" y="137.9102">Modelo</text><line style="stroke: #A80036; stroke-width: 1.5;" x1="858" x2="928" y1="149" y2="149"/><line style="stroke: #A80036; stroke-width: 1.5;" x1="858" x2="928" y1="157" y2="157"/><!--class Entidad--><rect fill="#FEFECE" filter="url(#f6ons8j326f73)" height="89.5078" id="Entidad" style="stroke: #A80036; stroke-width: 1.5;" width="74" x="767" y="226"/><ellipse cx="782" cy="242" fill="#ADD1B2" rx="11" ry="11" style="stroke: #A80036; stroke-width: 1.0;"/><path d="M784.7656,237.875 Q784.9219,237.6563 785.1094,237.5469 Q785.2969,237.4375 785.5156,237.4375 Q785.8906,237.4375 786.125,237.6953 Q786.3594,237.9531 786.3594,238.5625 L786.3594,240.0156 Q786.3594,240.625 786.125,240.8906 Q785.8906,241.1563 785.5156,241.1563 Q785.1719,241.1563 784.9688,240.9531 Q784.7656,240.7656 784.6563,240.25 Q784.6094,239.8906 784.4219,239.7031 Q784.0938,239.3281 783.4844,239.1094 Q782.875,238.8906 782.25,238.8906 Q781.4844,238.8906 780.8516,239.2188 Q780.2188,239.5469 779.7266,240.2969 Q779.2344,241.0469 779.2344,242.0781 L779.2344,243.1719 Q779.2344,244.4063 780.125,245.2266 Q781.0156,246.0469 782.6094,246.0469 Q783.5469,246.0469 784.2031,245.7969 Q784.5938,245.6406 785.0156,245.2031 Q785.2813,244.9375 785.4297,244.8594 Q785.5781,244.7813 785.7813,244.7813 Q786.1094,244.7813 786.3672,245.0391 Q786.625,245.2969 786.625,245.6406 Q786.625,245.9844 786.2813,246.3906 Q785.7813,246.9688 784.9844,247.2969 Q783.9063,247.75 782.6094,247.75 Q781.0938,247.75 779.8906,247.125 Q778.9063,246.625 778.2188,245.5547 Q777.5313,244.4844 777.5313,243.2031 L777.5313,242.0469 Q777.5313,240.7188 778.1484,239.5703 Q778.7656,238.4219 779.8594,237.8047 Q780.9531,237.1875 782.1875,237.1875 Q782.9219,237.1875 783.5703,237.3516 Q784.2188,237.5156 784.7656,237.875 Z "/><text fill="#000000" font-family="sans-serif" font-size="12" lengthAdjust="spacingAndGlyphs" textLength="42" x="796" y="246.9102">Entidad</text><line style="stroke: #A80036; stroke-width: 1.5;" x1="768" x2="840" y1="258" y2="258"/><text fill="#000000" font-family="sans-serif" font-size="11" lengthAdjust="spacingAndGlyphs" textLength="34" x="773" y="273.4189">módulo</text><text fill="#000000" font-family="sans-serif" font-size="11" lengthAdjust="spacingAndGlyphs" textLength="26" x="773" y="287.2549">clase</text><text fill="#000000" font-family="sans-serif" font-size="11" lengthAdjust="spacingAndGlyphs" textLength="17" x="773" y="301.0908">tipo</text><line style="stroke: #A80036; stroke-width: 1.5;" x1="768" x2="840" y1="307.5078" y2="307.5078"/><!--class Ente--><rect fill="#FEFECE" filter="url(#f6ons8j326f73)" height="103.3438" id="Ente" style="stroke: #A80036; stroke-width: 1.5;" width="62" x="943" y="486"/><ellipse cx="960.25" cy="502" fill="#ADD1B2" rx="11" ry="11" style="stroke: #A80036; stroke-width: 1.0;"/><path d="M963.0156,497.875 Q963.1719,497.6563 963.3594,497.5469 Q963.5469,497.4375 963.7656,497.4375 Q964.1406,497.4375 964.375,497.6953 Q964.6094,497.9531 964.6094,498.5625 L964.6094,500.0156 Q964.6094,500.625 964.375,500.8906 Q964.1406,501.1563 963.7656,501.1563 Q963.4219,501.1563 963.2188,500.9531 Q963.0156,500.7656 962.9063,500.25 Q962.8594,499.8906 962.6719,499.7031 Q962.3438,499.3281 961.7344,499.1094 Q961.125,498.8906 960.5,498.8906 Q959.7344,498.8906 959.1016,499.2188 Q958.4688,499.5469 957.9766,500.2969 Q957.4844,501.0469 957.4844,502.0781 L957.4844,503.1719 Q957.4844,504.4063 958.375,505.2266 Q959.2656,506.0469 960.8594,506.0469 Q961.7969,506.0469 962.4531,505.7969 Q962.8438,505.6406 963.2656,505.2031 Q963.5313,504.9375 963.6797,504.8594 Q963.8281,504.7813 964.0313,504.7813 Q964.3594,504.7813 964.6172,505.0391 Q964.875,505.2969 964.875,505.6406 Q964.875,505.9844 964.5313,506.3906 Q964.0313,506.9688 963.2344,507.2969 Q962.1563,507.75 960.8594,507.75 Q959.3438,507.75 958.1406,507.125 Q957.1563,506.625 956.4688,505.5547 Q955.7813,504.4844 955.7813,503.2031 L955.7813,502.0469 Q955.7813,500.7188 956.3984,499.5703 Q957.0156,498.4219 958.1094,497.8047 Q959.2031,497.1875 960.4375,497.1875 Q961.1719,497.1875 961.8203,497.3516 Q962.4688,497.5156 963.0156,497.875 Z "/><text fill="#000000" font-family="sans-serif" font-size="12" lengthAdjust="spacingAndGlyphs" textLength="25" x="974.75" y="506.9102">Ente</text><line style="stroke: #A80036; stroke-width: 1.5;" x1="944" x2="1004" y1="518" y2="518"/><text fill="#000000" font-family="sans-serif" font-size="11" lengthAdjust="spacingAndGlyphs" textLength="29" x="949" y="533.4189">objeto</text><text fill="#000000" font-family="sans-serif" font-size="11" lengthAdjust="spacingAndGlyphs" textLength="24" x="949" y="547.2549">cosa</text><text fill="#000000" font-family="sans-serif" font-size="11" lengthAdjust="spacingAndGlyphs" textLength="50" x="949" y="561.0908">archiperre</text><text fill="#000000" font-family="sans-serif" font-size="11" lengthAdjust="spacingAndGlyphs" textLength="33" x="949" y="574.9268">evento</text><line style="stroke: #A80036; stroke-width: 1.5;" x1="944" x2="1004" y1="581.3438" y2="581.3438"/><!--class Identidad--><rect fill="#FEFECE" filter="url(#f6ons8j326f73)" height="48" id="Identidad" style="stroke: #A80036; stroke-width: 1.5;" width="83" x="932.5" y="650"/><ellipse cx="947.5" cy="666" fill="#ADD1B2" rx="11" ry="11" style="stroke: #A80036; stroke-width: 1.0;"/><path d="M950.2656,661.875 Q950.4219,661.6563 950.6094,661.5469 Q950.7969,661.4375 951.0156,661.4375 Q951.3906,661.4375 951.625,661.6953 Q951.8594,661.9531 951.8594,662.5625 L951.8594,664.0156 Q951.8594,664.625 951.625,664.8906 Q951.3906,665.1563 951.0156,665.1563 Q950.6719,665.1563 950.4688,664.9531 Q950.2656,664.7656 950.1563,664.25 Q950.1094,663.8906 949.9219,663.7031 Q949.5938,663.3281 948.9844,663.1094 Q948.375,662.8906 947.75,662.8906 Q946.9844,662.8906 946.3516,663.2188 Q945.7188,663.5469 945.2266,664.2969 Q944.7344,665.0469 944.7344,666.0781 L944.7344,667.1719 Q944.7344,668.4063 945.625,669.2266 Q946.5156,670.0469 948.1094,670.0469 Q949.0469,670.0469 949.7031,669.7969 Q950.0938,669.6406 950.5156,669.2031 Q950.7813,668.9375 950.9297,668.8594 Q951.0781,668.7813 951.2813,668.7813 Q951.6094,668.7813 951.8672,669.0391 Q952.125,669.2969 952.125,669.6406 Q952.125,669.9844 951.7813,670.3906 Q951.2813,670.9688 950.4844,671.2969 Q949.4063,671.75 948.1094,671.75 Q946.5938,671.75 945.3906,671.125 Q944.4063,670.625 943.7188,669.5547 Q943.0313,668.4844 943.0313,667.2031 L943.0313,666.0469 Q943.0313,664.7188 943.6484,663.5703 Q944.2656,662.4219 945.3594,661.8047 Q946.4531,661.1875 947.6875,661.1875 Q948.4219,661.1875 949.0703,661.3516 Q949.7188,661.5156 950.2656,661.875 Z "/><text fill="#000000" font-family="sans-serif" font-size="12" lengthAdjust="spacingAndGlyphs" textLength="51" x="961.5" y="670.9102">Identidad</text><line style="stroke: #A80036; stroke-width: 1.5;" x1="933.5" x2="1014.5" y1="682" y2="682"/><line style="stroke: #A80036; stroke-width: 1.5;" x1="933.5" x2="1014.5" y1="690" y2="690"/><!--class Abstracción--><rect fill="#FEFECE" filter="url(#f6ons8j326f73)" height="48" id="Abstracción" style="stroke: #A80036; stroke-width: 1.5;" width="96" x="761" y="650"/><ellipse cx="776" cy="666" fill="#ADD1B2" rx="11" ry="11" style="stroke: #A80036; stroke-width: 1.0;"/><path d="M778.7656,661.875 Q778.9219,661.6563 779.1094,661.5469 Q779.2969,661.4375 779.5156,661.4375 Q779.8906,661.4375 780.125,661.6953 Q780.3594,661.9531 780.3594,662.5625 L780.3594,664.0156 Q780.3594,664.625 780.125,664.8906 Q779.8906,665.1563 779.5156,665.1563 Q779.1719,665.1563 778.9688,664.9531 Q778.7656,664.7656 778.6563,664.25 Q778.6094,663.8906 778.4219,663.7031 Q778.0938,663.3281 777.4844,663.1094 Q776.875,662.8906 776.25,662.8906 Q775.4844,662.8906 774.8516,663.2188 Q774.2188,663.5469 773.7266,664.2969 Q773.2344,665.0469 773.2344,666.0781 L773.2344,667.1719 Q773.2344,668.4063 774.125,669.2266 Q775.0156,670.0469 776.6094,670.0469 Q777.5469,670.0469 778.2031,669.7969 Q778.5938,669.6406 779.0156,669.2031 Q779.2813,668.9375 779.4297,668.8594 Q779.5781,668.7813 779.7813,668.7813 Q780.1094,668.7813 780.3672,669.0391 Q780.625,669.2969 780.625,669.6406 Q780.625,669.9844 780.2813,670.3906 Q779.7813,670.9688 778.9844,671.2969 Q777.9063,671.75 776.6094,671.75 Q775.0938,671.75 773.8906,671.125 Q772.9063,670.625 772.2188,669.5547 Q771.5313,668.4844 771.5313,667.2031 L771.5313,666.0469 Q771.5313,664.7188 772.1484,663.5703 Q772.7656,662.4219 773.8594,661.8047 Q774.9531,661.1875 776.1875,661.1875 Q776.9219,661.1875 777.5703,661.3516 Q778.2188,661.5156 778.7656,661.875 Z "/><text fill="#000000" font-family="sans-serif" font-size="12" lengthAdjust="spacingAndGlyphs" textLength="64" x="790" y="670.9102">Abstracción</text><line style="stroke: #A80036; stroke-width: 1.5;" x1="762" x2="856" y1="682" y2="682"/><line style="stroke: #A80036; stroke-width: 1.5;" x1="762" x2="856" y1="690" y2="690"/><!--class Compuesto--><rect fill="#FEFECE" filter="url(#f6ons8j326f73)" height="48" id="Compuesto" style="stroke: #A80036; stroke-width: 1.5;" width="97" x="617.5" y="377"/><ellipse cx="632.5" cy="393" fill="#ADD1B2" rx="11" ry="11" style="stroke: #A80036; stroke-width: 1.0;"/><path d="M635.2656,388.875 Q635.4219,388.6563 635.6094,388.5469 Q635.7969,388.4375 636.0156,388.4375 Q636.3906,388.4375 636.625,388.6953 Q636.8594,388.9531 636.8594,389.5625 L636.8594,391.0156 Q636.8594,391.625 636.625,391.8906 Q636.3906,392.1563 636.0156,392.1563 Q635.6719,392.1563 635.4688,391.9531 Q635.2656,391.7656 635.1563,391.25 Q635.1094,390.8906 634.9219,390.7031 Q634.5938,390.3281 633.9844,390.1094 Q633.375,389.8906 632.75,389.8906 Q631.9844,389.8906 631.3516,390.2188 Q630.7188,390.5469 630.2266,391.2969 Q629.7344,392.0469 629.7344,393.0781 L629.7344,394.1719 Q629.7344,395.4063 630.625,396.2266 Q631.5156,397.0469 633.1094,397.0469 Q634.0469,397.0469 634.7031,396.7969 Q635.0938,396.6406 635.5156,396.2031 Q635.7813,395.9375 635.9297,395.8594 Q636.0781,395.7813 636.2813,395.7813 Q636.6094,395.7813 636.8672,396.0391 Q637.125,396.2969 637.125,396.6406 Q637.125,396.9844 636.7813,397.3906 Q636.2813,397.9688 635.4844,398.2969 Q634.4063,398.75 633.1094,398.75 Q631.5938,398.75 630.3906,398.125 Q629.4063,397.625 628.7188,396.5547 Q628.0313,395.4844 628.0313,394.2031 L628.0313,393.0469 Q628.0313,391.7188 628.6484,390.5703 Q629.2656,389.4219 630.3594,388.8047 Q631.4531,388.1875 632.6875,388.1875 Q633.4219,388.1875 634.0703,388.3516 Q634.7188,388.5156 635.2656,388.875 Z "/><text fill="#000000" font-family="sans-serif" font-size="12" lengthAdjust="spacingAndGlyphs" textLength="65" x="646.5" y="397.9102">Compuesto</text><line style="stroke: #A80036; stroke-width: 1.5;" x1="618.5" x2="713.5" y1="409" y2="409"/><line style="stroke: #A80036; stroke-width: 1.5;" x1="618.5" x2="713.5" y1="417" y2="417"/><!--class Circulo--><rect fill="#FEFECE" filter="url(#f6ons8j326f73)" height="48" id="Circulo" style="stroke: #A80036; stroke-width: 1.5;" width="71" x="259.5" y="513.5"/><ellipse cx="274.5" cy="529.5" fill="#ADD1B2" rx="11" ry="11" style="stroke: #A80036; stroke-width: 1.0;"/><path d="M277.2656,525.375 Q277.4219,525.1563 277.6094,525.0469 Q277.7969,524.9375 278.0156,524.9375 Q278.3906,524.9375 278.625,525.1953 Q278.8594,525.4531 278.8594,526.0625 L278.8594,527.5156 Q278.8594,528.125 278.625,528.3906 Q278.3906,528.6563 278.0156,528.6563 Q277.6719,528.6563 277.4688,528.4531 Q277.2656,528.2656 277.1563,527.75 Q277.1094,527.3906 276.9219,527.2031 Q276.5938,526.8281 275.9844,526.6094 Q275.375,526.3906 274.75,526.3906 Q273.9844,526.3906 273.3516,526.7188 Q272.7188,527.0469 272.2266,527.7969 Q271.7344,528.5469 271.7344,529.5781 L271.7344,530.6719 Q271.7344,531.9063 272.625,532.7266 Q273.5156,533.5469 275.1094,533.5469 Q276.0469,533.5469 276.7031,533.2969 Q277.0938,533.1406 277.5156,532.7031 Q277.7813,532.4375 277.9297,532.3594 Q278.0781,532.2813 278.2813,532.2813 Q278.6094,532.2813 278.8672,532.5391 Q279.125,532.7969 279.125,533.1406 Q279.125,533.4844 278.7813,533.8906 Q278.2813,534.4688 277.4844,534.7969 Q276.4063,535.25 275.1094,535.25 Q273.5938,535.25 272.3906,534.625 Q271.4063,534.125 270.7188,533.0547 Q270.0313,531.9844 270.0313,530.7031 L270.0313,529.5469 Q270.0313,528.2188 270.6484,527.0703 Q271.2656,525.9219 272.3594,525.3047 Q273.4531,524.6875 274.6875,524.6875 Q275.4219,524.6875 276.0703,524.8516 Q276.7188,525.0156 277.2656,525.375 Z "/><text fill="#000000" font-family="sans-serif" font-size="12" lengthAdjust="spacingAndGlyphs" textLength="39" x="288.5" y="534.4102">Circulo</text><line style="stroke: #A80036; stroke-width: 1.5;" x1="260.5" x2="329.5" y1="545.5" y2="545.5"/><line style="stroke: #A80036; stroke-width: 1.5;" x1="260.5" x2="329.5" y1="553.5" y2="553.5"/><!--class Espiral--><rect fill="#FEFECE" filter="url(#f6ons8j326f73)" height="48" id="Espiral" style="stroke: #A80036; stroke-width: 1.5;" width="71" x="503.5" y="513.5"/><ellipse cx="518.5" cy="529.5" fill="#ADD1B2" rx="11" ry="11" style="stroke: #A80036; stroke-width: 1.0;"/><path d="M521.2656,525.375 Q521.4219,525.1563 521.6094,525.0469 Q521.7969,524.9375 522.0156,524.9375 Q522.3906,524.9375 522.625,525.1953 Q522.8594,525.4531 522.8594,526.0625 L522.8594,527.5156 Q522.8594,528.125 522.625,528.3906 Q522.3906,528.6563 522.0156,528.6563 Q521.6719,528.6563 521.4688,528.4531 Q521.2656,528.2656 521.1563,527.75 Q521.1094,527.3906 520.9219,527.2031 Q520.5938,526.8281 519.9844,526.6094 Q519.375,526.3906 518.75,526.3906 Q517.9844,526.3906 517.3516,526.7188 Q516.7188,527.0469 516.2266,527.7969 Q515.7344,528.5469 515.7344,529.5781 L515.7344,530.6719 Q515.7344,531.9063 516.625,532.7266 Q517.5156,533.5469 519.1094,533.5469 Q520.0469,533.5469 520.7031,533.2969 Q521.0938,533.1406 521.5156,532.7031 Q521.7813,532.4375 521.9297,532.3594 Q522.0781,532.2813 522.2813,532.2813 Q522.6094,532.2813 522.8672,532.5391 Q523.125,532.7969 523.125,533.1406 Q523.125,533.4844 522.7813,533.8906 Q522.2813,534.4688 521.4844,534.7969 Q520.4063,535.25 519.1094,535.25 Q517.5938,535.25 516.3906,534.625 Q515.4063,534.125 514.7188,533.0547 Q514.0313,531.9844 514.0313,530.7031 L514.0313,529.5469 Q514.0313,528.2188 514.6484,527.0703 Q515.2656,525.9219 516.3594,525.3047 Q517.4531,524.6875 518.6875,524.6875 Q519.4219,524.6875 520.0703,524.8516 Q520.7188,525.0156 521.2656,525.375 Z "/><text fill="#000000" font-family="sans-serif" font-size="12" lengthAdjust="spacingAndGlyphs" textLength="39" x="532.5" y="534.4102">Espiral</text><line style="stroke: #A80036; stroke-width: 1.5;" x1="504.5" x2="573.5" y1="545.5" y2="545.5"/><line style="stroke: #A80036; stroke-width: 1.5;" x1="504.5" x2="573.5" y1="553.5" y2="553.5"/><!--class Recta--><rect fill="#FEFECE" filter="url(#f6ons8j326f73)" height="48" id="Recta" style="stroke: #A80036; stroke-width: 1.5;" width="64" x="144" y="513.5"/><ellipse cx="159" cy="529.5" fill="#ADD1B2" rx="11" ry="11" style="stroke: #A80036; stroke-width: 1.0;"/><path d="M161.7656,525.375 Q161.9219,525.1563 162.1094,525.0469 Q162.2969,524.9375 162.5156,524.9375 Q162.8906,524.9375 163.125,525.1953 Q163.3594,525.4531 163.3594,526.0625 L163.3594,527.5156 Q163.3594,528.125 163.125,528.3906 Q162.8906,528.6563 162.5156,528.6563 Q162.1719,528.6563 161.9688,528.4531 Q161.7656,528.2656 161.6563,527.75 Q161.6094,527.3906 161.4219,527.2031 Q161.0938,526.8281 160.4844,526.6094 Q159.875,526.3906 159.25,526.3906 Q158.4844,526.3906 157.8516,526.7188 Q157.2188,527.0469 156.7266,527.7969 Q156.2344,528.5469 156.2344,529.5781 L156.2344,530.6719 Q156.2344,531.9063 157.125,532.7266 Q158.0156,533.5469 159.6094,533.5469 Q160.5469,533.5469 161.2031,533.2969 Q161.5938,533.1406 162.0156,532.7031 Q162.2813,532.4375 162.4297,532.3594 Q162.5781,532.2813 162.7813,532.2813 Q163.1094,532.2813 163.3672,532.5391 Q163.625,532.7969 163.625,533.1406 Q163.625,533.4844 163.2813,533.8906 Q162.7813,534.4688 161.9844,534.7969 Q160.9063,535.25 159.6094,535.25 Q158.0938,535.25 156.8906,534.625 Q155.9063,534.125 155.2188,533.0547 Q154.5313,531.9844 154.5313,530.7031 L154.5313,529.5469 Q154.5313,528.2188 155.1484,527.0703 Q155.7656,525.9219 156.8594,525.3047 Q157.9531,524.6875 159.1875,524.6875 Q159.9219,524.6875 160.5703,524.8516 Q161.2188,525.0156 161.7656,525.375 Z "/><text fill="#000000" font-family="sans-serif" font-size="12" lengthAdjust="spacingAndGlyphs" textLength="32" x="173" y="534.4102">Recta</text><line style="stroke: #A80036; stroke-width: 1.5;" x1="145" x2="207" y1="545.5" y2="545.5"/><line style="stroke: #A80036; stroke-width: 1.5;" x1="145" x2="207" y1="553.5" y2="553.5"/><!--class Senoidal--><rect fill="#FEFECE" filter="url(#f6ons8j326f73)" height="48" id="Senoidal" style="stroke: #A80036; stroke-width: 1.5;" width="81" x="373.5" y="513.5"/><ellipse cx="388.5" cy="529.5" fill="#ADD1B2" rx="11" ry="11" style="stroke: #A80036; stroke-width: 1.0;"/><path d="M391.2656,525.375 Q391.4219,525.1563 391.6094,525.0469 Q391.7969,524.9375 392.0156,524.9375 Q392.3906,524.9375 392.625,525.1953 Q392.8594,525.4531 392.8594,526.0625 L392.8594,527.5156 Q392.8594,528.125 392.625,528.3906 Q392.3906,528.6563 392.0156,528.6563 Q391.6719,528.6563 391.4688,528.4531 Q391.2656,528.2656 391.1563,527.75 Q391.1094,527.3906 390.9219,527.2031 Q390.5938,526.8281 389.9844,526.6094 Q389.375,526.3906 388.75,526.3906 Q387.9844,526.3906 387.3516,526.7188 Q386.7188,527.0469 386.2266,527.7969 Q385.7344,528.5469 385.7344,529.5781 L385.7344,530.6719 Q385.7344,531.9063 386.625,532.7266 Q387.5156,533.5469 389.1094,533.5469 Q390.0469,533.5469 390.7031,533.2969 Q391.0938,533.1406 391.5156,532.7031 Q391.7813,532.4375 391.9297,532.3594 Q392.0781,532.2813 392.2813,532.2813 Q392.6094,532.2813 392.8672,532.5391 Q393.125,532.7969 393.125,533.1406 Q393.125,533.4844 392.7813,533.8906 Q392.2813,534.4688 391.4844,534.7969 Q390.4063,535.25 389.1094,535.25 Q387.5938,535.25 386.3906,534.625 Q385.4063,534.125 384.7188,533.0547 Q384.0313,531.9844 384.0313,530.7031 L384.0313,529.5469 Q384.0313,528.2188 384.6484,527.0703 Q385.2656,525.9219 386.3594,525.3047 Q387.4531,524.6875 388.6875,524.6875 Q389.4219,524.6875 390.0703,524.8516 Q390.7188,525.0156 391.2656,525.375 Z "/><text fill="#000000" font-family="sans-serif" font-size="12" lengthAdjust="spacingAndGlyphs" textLength="49" x="402.5" y="534.4102">Senoidal</text><line style="stroke: #A80036; stroke-width: 1.5;" x1="374.5" x2="453.5" y1="545.5" y2="545.5"/><line style="stroke: #A80036; stroke-width: 1.5;" x1="374.5" x2="453.5" y1="553.5" y2="553.5"/><!--class Características--><rect fill="#FEFECE" filter="url(#f6ons8j326f73)" height="48" id="Características" style="stroke: #A80036; stroke-width: 1.5;" width="115" x="751.5" y="759"/><ellipse cx="766.5" cy="775" fill="#ADD1B2" rx="11" ry="11" style="stroke: #A80036; stroke-width: 1.0;"/><path d="M769.2656,770.875 Q769.4219,770.6563 769.6094,770.5469 Q769.7969,770.4375 770.0156,770.4375 Q770.3906,770.4375 770.625,770.6953 Q770.8594,770.9531 770.8594,771.5625 L770.8594,773.0156 Q770.8594,773.625 770.625,773.8906 Q770.3906,774.1563 770.0156,774.1563 Q769.6719,774.1563 769.4688,773.9531 Q769.2656,773.7656 769.1563,773.25 Q769.1094,772.8906 768.9219,772.7031 Q768.5938,772.3281 767.9844,772.1094 Q767.375,771.8906 766.75,771.8906 Q765.9844,771.8906 765.3516,772.2188 Q764.7188,772.5469 764.2266,773.2969 Q763.7344,774.0469 763.7344,775.0781 L763.7344,776.1719 Q763.7344,777.4063 764.625,778.2266 Q765.5156,779.0469 767.1094,779.0469 Q768.0469,779.0469 768.7031,778.7969 Q769.0938,778.6406 769.5156,778.2031 Q769.7813,777.9375 769.9297,777.8594 Q770.0781,777.7813 770.2813,777.7813 Q770.6094,777.7813 770.8672,778.0391 Q771.125,778.2969 771.125,778.6406 Q771.125,778.9844 770.7813,779.3906 Q770.2813,779.9688 769.4844,780.2969 Q768.4063,780.75 767.1094,780.75 Q765.5938,780.75 764.3906,780.125 Q763.4063,779.625 762.7188,778.5547 Q762.0313,777.4844 762.0313,776.2031 L762.0313,775.0469 Q762.0313,773.7188 762.6484,772.5703 Q763.2656,771.4219 764.3594,770.8047 Q765.4531,770.1875 766.6875,770.1875 Q767.4219,770.1875 768.0703,770.3516 Q768.7188,770.5156 769.2656,770.875 Z "/><text fill="#000000" font-family="sans-serif" font-size="12" lengthAdjust="spacingAndGlyphs" textLength="83" x="780.5" y="779.9102">Características</text><line style="stroke: #A80036; stroke-width: 1.5;" x1="752.5" x2="865.5" y1="791" y2="791"/><line style="stroke: #A80036; stroke-width: 1.5;" x1="752.5" x2="865.5" y1="799" y2="799"/><!--class Identificador--><rect fill="#FEFECE" filter="url(#f6ons8j326f73)" height="48" id="Identificador" style="stroke: #A80036; stroke-width: 1.5;" width="99" x="821.5" y="377"/><ellipse cx="836.5" cy="393" fill="#ADD1B2" rx="11" ry="11" style="stroke: #A80036; stroke-width: 1.0;"/><path d="M839.2656,388.875 Q839.4219,388.6563 839.6094,388.5469 Q839.7969,388.4375 840.0156,388.4375 Q840.3906,388.4375 840.625,388.6953 Q840.8594,388.9531 840.8594,389.5625 L840.8594,391.0156 Q840.8594,391.625 840.625,391.8906 Q840.3906,392.1563 840.0156,392.1563 Q839.6719,392.1563 839.4688,391.9531 Q839.2656,391.7656 839.1563,391.25 Q839.1094,390.8906 838.9219,390.7031 Q838.5938,390.3281 837.9844,390.1094 Q837.375,389.8906 836.75,389.8906 Q835.9844,389.8906 835.3516,390.2188 Q834.7188,390.5469 834.2266,391.2969 Q833.7344,392.0469 833.7344,393.0781 L833.7344,394.1719 Q833.7344,395.4063 834.625,396.2266 Q835.5156,397.0469 837.1094,397.0469 Q838.0469,397.0469 838.7031,396.7969 Q839.0938,396.6406 839.5156,396.2031 Q839.7813,395.9375 839.9297,395.8594 Q840.0781,395.7813 840.2813,395.7813 Q840.6094,395.7813 840.8672,396.0391 Q841.125,396.2969 841.125,396.6406 Q841.125,396.9844 840.7813,397.3906 Q840.2813,397.9688 839.4844,398.2969 Q838.4063,398.75 837.1094,398.75 Q835.5938,398.75 834.3906,398.125 Q833.4063,397.625 832.7188,396.5547 Q832.0313,395.4844 832.0313,394.2031 L832.0313,393.0469 Q832.0313,391.7188 832.6484,390.5703 Q833.2656,389.4219 834.3594,388.8047 Q835.4531,388.1875 836.6875,388.1875 Q837.4219,388.1875 838.0703,388.3516 Q838.7188,388.5156 839.2656,388.875 Z "/><text fill="#000000" font-family="sans-serif" font-size="12" lengthAdjust="spacingAndGlyphs" textLength="67" x="850.5" y="397.9102">Identificador</text><line style="stroke: #A80036; stroke-width: 1.5;" x1="822.5" x2="919.5" y1="409" y2="409"/><line style="stroke: #A80036; stroke-width: 1.5;" x1="822.5" x2="919.5" y1="417" y2="417"/><!--link Conjunto to Patrón--><path d="M799.065,70.569 C750.383,120.087 666.206,205.709 625.858,246.75 " fill="none" id="Conjunto-Patrón" style="stroke: #A80036; stroke-width: 1.0;"/><polygon fill="none" points="794.222,65.511,813.235,56.156,804.205,75.326,794.222,65.511" style="stroke: #A80036; stroke-width: 1.0;"/><!--link Conjunto to Entidad--><path d="M830.179,76.112 C824.447,118.564 815.734,183.092 809.956,225.888 " fill="none" id="Conjunto-Entidad" style="stroke: #A80036; stroke-width: 1.0;"/><polygon fill="none" points="823.26,75.04,832.873,56.156,837.134,76.913,823.26,75.04" style="stroke: #A80036; stroke-width: 1.0;"/><!--link Conjunto to Ente--><path d="M896.915,43.608 C979.283,59.712 1116,93.455 1116,140 C1116,140 1116,140 1116,402 C1116,462.612 1046.96,504.09 1005.163,523.648 " fill="none" id="Conjunto-Ente" style="stroke: #A80036; stroke-width: 1.0;"/><polygon fill="none" points="895.369,50.439,877.014,39.851,897.966,36.682,895.369,50.439" style="stroke: #A80036; stroke-width: 1.0;"/><!--link Conjunto to Modelo--><path d="M857.909,74.127 C865.62,88.602 874.012,104.357 880.656,116.828 " fill="none" id="Conjunto-Modelo" style="stroke: #A80036; stroke-width: 1.0;"/><polygon fill="none" points="851.593,77.16,848.368,56.217,863.949,70.578,851.593,77.16" style="stroke: #A80036; stroke-width: 1.0;"/><!--link Patrón to Alternativo--><path d="M549.006,280.909 C457.914,296.524 268.339,331.544 112,377 C106.157,378.699 100.0763,380.68 94.1062,382.754 " fill="none" id="Patrón-Alternativo" style="stroke: #A80036; stroke-width: 1.0;"/><polygon fill="none" points="548.059,273.97,568.947,277.532,550.397,287.773,548.059,273.97" style="stroke: #A80036; stroke-width: 1.0;"/><!--link Patrón to Secuencial--><path d="M549.014,286.464 C477.821,305.801 348.829,341.744 240,377 C234.384,378.819 228.52,380.805 222.72,382.824 " fill="none" id="Patrón-Secuencial" style="stroke: #A80036; stroke-width: 1.0;"/><polygon fill="none" points="547.615,279.591,568.749,281.128,551.27,293.106,547.615,279.591" style="stroke: #A80036; stroke-width: 1.0;"/><!--link Patrón to Recurrente--><path d="M551.985,306.55 C518.982,328.901 476.93,357.381 447.972,376.993 " fill="none" id="Patrón-Recurrente" style="stroke: #A80036; stroke-width: 1.0;"/><polygon fill="none" points="548.289,300.599,568.774,295.18,556.139,312.191,548.289,300.599" style="stroke: #A80036; stroke-width: 1.0;"/><!--link Patrón to Iterativo--><path d="M549.814,294.024 C498.606,315.241 418.983,348.262 350,377 C344.268,379.388 338.201,381.92 332.272,384.398 " fill="none" id="Patrón-Iterativo" style="stroke: #A80036; stroke-width: 1.0;"/><polygon fill="none" points="547.457,287.424,568.613,286.237,552.815,300.358,547.457,287.424" style="stroke: #A80036; stroke-width: 1.0;"/><!--link Patrón to Recursivo--><path d="M582.401,313.198 C571.835,334.33 559.361,359.278 550.504,376.993 " fill="none" id="Patrón-Recursivo" style="stroke: #A80036; stroke-width: 1.0;"/><polygon fill="none" points="576.205,309.938,591.41,295.18,588.727,316.199,576.205,309.938" style="stroke: #A80036; stroke-width: 1.0;"/><!--link Patrón to Compuesto--><path d="M611.551,313.846 C620.495,334.839 633.275,359.459 644.616,376.993 " fill="none" id="Patrón-Compuesto" style="stroke: #A80036; stroke-width: 1.0;"/><polygon fill="none" points="605.017,316.358,604.322,295.18,618.072,311.302,605.017,316.358" style="stroke: #A80036; stroke-width: 1.0;"/><!--link Compuesto to Patrón--><path d="M660.774,364.537 C653.55,346.337 642.647,324.264 631.962,306.241 " fill="none" id="Compuesto-Patrón" style="stroke: #A80036; stroke-width: 1.0;"/><polygon fill="#A80036" points="625.089,295.18,626.4404,304.9357,627.7274,299.4272,633.2359,300.7142,625.089,295.18" style="stroke: #A80036; stroke-width: 1.0;"/><line style="stroke: #A80036; stroke-width: 1.0;" x1="627.7274" x2="631.95" y1="299.4272" y2="306.222"/><polygon fill="#A80036" points="665.328,376.993,667.0241,369.9842,661.2069,365.7229,659.5107,372.7316,665.328,376.993" style="stroke: #A80036; stroke-width: 1.0;"/><!--link Patrón to Entidad--><path d="M637.154,281.155 C678.698,290.979 720.241,291.576 761.784,282.946 " fill="none" id="Patrón-Entidad" style="stroke: #A80036; stroke-width: 1.0;"/><polygon fill="#A80036" points="766.851,281.848,757.2075,279.8472,761.9647,282.9081,758.9037,287.6653,766.851,281.848" style="stroke: #A80036; stroke-width: 1.0;"/><!--link Patrón to Entidad--><path d="M642.221,259.692 C683.764,250.618 725.307,250.772 766.851,260.152 " fill="none" id="Patrón-Entidad-1" style="stroke: #A80036; stroke-width: 1.0;"/><polygon fill="#A80036" points="637.154,260.845,646.8168,262.7501,642.0296,259.7365,645.0432,254.9492,637.154,260.845" style="stroke: #A80036; stroke-width: 1.0;"/><!--link Iterativo to Circulo--><path d="M295,445.459 C295,467.991 295,494.615 295,513.23 " fill="none" id="Iterativo-Circulo" style="stroke: #A80036; stroke-width: 1.0;"/><polygon fill="none" points="288,445.121,295,425.121,302,445.121,288,445.121" style="stroke: #A80036; stroke-width: 1.0;"/><!--link Recursivo to Espiral--><path d="M539,445.459 C539,467.991 539,494.615 539,513.23 " fill="none" id="Recursivo-Espiral" style="stroke: #A80036; stroke-width: 1.0;"/><polygon fill="none" points="532,445.121,539,425.121,546,445.121,532,445.121" style="stroke: #A80036; stroke-width: 1.0;"/><!--link Secuencial to Recta--><path d="M176,445.459 C176,467.991 176,494.615 176,513.23 " fill="none" id="Secuencial-Recta" style="stroke: #A80036; stroke-width: 1.0;"/><polygon fill="none" points="169,445.121,176,425.121,183,445.121,169,445.121" style="stroke: #A80036; stroke-width: 1.0;"/><!--link Recurrente to Senoidal--><path d="M414,445.459 C414,467.991 414,494.615 414,513.23 " fill="none" id="Recurrente-Senoidal" style="stroke: #A80036; stroke-width: 1.0;"/><polygon fill="none" points="407,445.121,414,425.121,421,445.121,407,445.121" style="stroke: #A80036; stroke-width: 1.0;"/><!--link Modelo to Entidad--><path d="M869.237,176.176 C860.968,188.069 851.468,201.731 842.323,214.883 " fill="none" id="Modelo-Entidad" style="stroke: #A80036; stroke-width: 1.0;"/><polygon fill="#A80036" points="834.76,225.761,843.1822,220.6554,837.6145,221.6559,836.614,216.0882,834.76,225.761" style="stroke: #A80036; stroke-width: 1.0;"/><line style="stroke: #A80036; stroke-width: 1.0;" x1="837.6145" x2="842.1815" y1="221.6559" y2="215.0875"/><polygon fill="#A80036" points="876.883,165.18,870.1735,167.8225,870.0322,175.0322,876.7417,172.3897,876.883,165.18" style="stroke: #A80036; stroke-width: 1.0;"/><!--link Ente to Entidad--><path d="M971.291,485.723 C967.511,452.602 958.64,409.626 938,377 C915.259,341.053 875.735,312.338 845.487,294.085 " fill="none" id="Ente-Entidad" style="stroke: #A80036; stroke-width: 1.0; stroke-dasharray: 7.0,7.0;"/><polygon fill="#A80036" points="841.094,291.468,846.7795,299.5101,845.3898,294.0266,850.8733,292.6369,841.094,291.468" style="stroke: #A80036; stroke-width: 1.0;"/><!--link Modelo to Ente--><path d="M909.36,177.463 C934.461,234.459 980.76,350.647 992,455 C992.628,460.83 992.608,466.854 992.128,472.864 " fill="none" id="Modelo-Ente" style="stroke: #A80036; stroke-width: 1.0;"/><polygon fill="#A80036" points="990.419,485.92,995.5532,477.5152,991.0679,480.9623,987.6209,476.477,990.419,485.92" style="stroke: #A80036; stroke-width: 1.0;"/><line style="stroke: #A80036; stroke-width: 1.0;" x1="991.0679" x2="992.1065" y1="480.9623" y2="473.0295"/><polygon fill="#A80036" points="903.906,165.255,902.7012,172.3647,908.8007,176.2114,910.0055,169.1016,903.906,165.255" style="stroke: #A80036; stroke-width: 1.0;"/><!--link Ente to Identidad--><path d="M974,602.496 C974,614.286 974,626.21 974,636.813 " fill="none" id="Ente-Identidad" style="stroke: #A80036; stroke-width: 1.0;"/><polygon fill="#A80036" points="974,649.869,978,640.869,974,644.869,970,640.869,974,649.869" style="stroke: #A80036; stroke-width: 1.0;"/><line style="stroke: #A80036; stroke-width: 1.0;" x1="974" x2="974" y1="644.869" y2="636.869"/><polygon fill="#A80036" points="974,589.349,970,595.349,974,601.349,978,595.349,974,589.349" style="stroke: #A80036; stroke-width: 1.0;"/><!--link Entidad to Abstracción--><path d="M803.765,316.19 C803.659,346.749 803.631,388.346 804,425 C804.802,504.611 807.054,598.576 808.242,644.643 " fill="none" id="Entidad-Abstracción" style="stroke: #A80036; stroke-width: 1.0;"/><polygon fill="#A80036" points="808.375,649.752,812.1423,640.6521,808.2464,644.7537,804.1449,640.8578,808.375,649.752" style="stroke: #A80036; stroke-width: 1.0;"/><!--link Ente to Abstracción--><path d="M942.965,563.798 C913.929,587.467 870.732,622.679 841.295,646.675 " fill="none" id="Ente-Abstracción" style="stroke: #A80036; stroke-width: 1.0;"/><polygon fill="#A80036" points="837.416,649.837,846.9196,647.252,841.2919,646.6783,841.8656,641.0506,837.416,649.837" style="stroke: #A80036; stroke-width: 1.0;"/><!--link Abstracción to Características--><path d="M809,711.3023 C809,722.3543 809,734.502 809,745.563 " fill="none" id="Abstracción-Características" style="stroke: #A80036; stroke-width: 1.0;"/><polygon fill="#A80036" points="809,758.8279,813,749.8279,809,753.8279,805,749.8279,809,758.8279" style="stroke: #A80036; stroke-width: 1.0;"/><line style="stroke: #A80036; stroke-width: 1.0;" x1="809" x2="809" y1="753.8279" y2="745.8279"/><polygon fill="#A80036" points="809,698.217,805,704.217,809,710.217,813,704.217,809,698.217" style="stroke: #A80036; stroke-width: 1.0;"/><!--link Identificador to Ente--><path d="M888.706,425.121 C902.676,443.364 922.587,469.363 939.657,491.654 " fill="none" id="Identificador-Ente" style="stroke: #A80036; stroke-width: 1.0;"/><polygon fill="#A80036" points="942.809,495.771,940.5131,486.1935,939.7692,491.8012,934.1614,491.0572,942.809,495.771" style="stroke: #A80036; stroke-width: 1.0;"/><!--link Entidad to Identificador--><path d="M833.195,327.776 C839.812,340.416 846.656,353.493 852.673,364.987 " fill="none" id="Entidad-Identificador" style="stroke: #A80036; stroke-width: 1.0;"/><polygon fill="#A80036" points="858.827,376.744,858.1971,366.9153,856.5082,372.3142,851.1094,370.6253,858.827,376.744" style="stroke: #A80036; stroke-width: 1.0;"/><line style="stroke: #A80036; stroke-width: 1.0;" x1="856.5082" x2="852.798" y1="372.3142" y2="365.226"/><polygon fill="#A80036" points="827.058,316.05,826.2963,323.2208,832.6225,326.6819,833.3842,319.5111,827.058,316.05" style="stroke: #A80036; stroke-width: 1.0;"/><!--link Ente to Ente--><path d="M1005.235,530.235 C1023.24,528.752 1040,531.174 1040,537.5 C1040,543.233 1026.23,545.76 1010.25,545.079 " fill="none" id="Ente-Ente" style="stroke: #A80036; stroke-width: 1.0;"/><polygon fill="#A80036" points="1005.235,544.765,1013.9787,549.2979,1010.226,545.0651,1014.4588,541.3123,1005.235,544.765" style="stroke: #A80036; stroke-width: 1.0;"/><text fill="#000000" font-family="sans-serif" font-size="13" lengthAdjust="spacingAndGlyphs" textLength="80" x="1046" y="542.9951">igual, idéntico</text><text fill="#000000" font-family="sans-serif" font-size="13" lengthAdjust="spacingAndGlyphs" textLength="24" x="1012.9362" y="542.1299">0..N</text><!--link Ente to Ente--><path d="M1005.025,527.333 C1054.2,517.895 1132,521.284 1132,537.5 C1132,553.177 1059.28,556.865 1010.01,548.564 " fill="none" id="Ente-Ente-1" style="stroke: #A80036; stroke-width: 1.0;"/><polygon fill="#A80036" points="1005.025,547.667,1013.1739,553.1983,1009.9459,548.5529,1014.5913,545.3249,1005.025,547.667" style="stroke: #A80036; stroke-width: 1.0;"/><text fill="#000000" font-family="sans-serif" font-size="13" lengthAdjust="spacingAndGlyphs" textLength="49" x="1138" y="542.9951">elMismo</text><text fill="#000000" font-family="sans-serif" font-size="13" lengthAdjust="spacingAndGlyphs" textLength="7" x="1013.0089" y="565.3641">1</text><!--
@startuml
class Conjunto

class Patrón
class Alternativo
class Secuencial
class Iterativo
class Recurrente
class Recursivo


class Modelo
class Entidad{
módulo
clase
tipo
}
class Ente {
objeto
cosa
archiperre
evento
}
class Identidad
class Abstracción

Conjunto <|- - Patrón
Conjunto <|- - Entidad
Conjunto <|- - Ente
Conjunto <|- - Modelo

Patrón <|- - Alternativo
Patrón <|- - Secuencial
Patrón <|- - Recurrente
Patrón <|- - Iterativo
Patrón <|- - Recursivo
Patrón <|- - Compuesto

Patrón -right-> Entidad
Entidad -left-> Patrón

Compuesto *- -> Patrón

Iterativo <|- - Circulo
Recursivo <|- - Espiral
Secuencial <|- - Recta
Recurrente <|- - Senoidal

Modelo *- -> Entidad
Ente ..> Entidad
Modelo *- -> Ente
Ente *- -> Identidad
Entidad - -> Abstracción
Ente - -> Abstracción
Abstracción *- -> Características
Identificador - -> Ente
Entidad *- -> Identificador
Ente - -> "0..N" Ente : igual, idéntico
Ente - -> "1" Ente : elMismo

@enduml

PlantUML version 1.2019.05(Sat Apr 20 18:45:36 CEST 2019)
(GPL source distribution)
Java Runtime: OpenJDK Runtime Environment
JVM: OpenJDK 64-Bit Server VM
Java Version: 1.8.0_222-b10
Operating System: Windows 10
OS Version: 10.0
Default Encoding: windows-1252
Language: es
Country: ES
--></g></svg>