<?xml version="1.0" encoding="UTF-8" standalone="no"?><svg xmlns="http://www.w3.org/2000/svg" xmlns:xlink="http://www.w3.org/1999/xlink" contentScriptType="application/ecmascript" contentStyleType="text/css" height="520px" preserveAspectRatio="none" style="width:396px;height:520px;" version="1.1" viewBox="0 0 396 520" width="396px" zoomAndPan="magnify"><defs><filter height="300%" id="f13u7d4myfrwli" width="300%" x="-1" y="-1"><feGaussianBlur result="blurOut" stdDeviation="2.0"/><feColorMatrix in="blurOut" result="blurOut2" type="matrix" values="0 0 0 0 0 0 0 0 0 0 0 0 0 0 0 0 0 0 .4 0"/><feOffset dx="4.0" dy="4.0" in="blurOut2" result="blurOut3"/><feBlend in="SourceGraphic" in2="blurOut3" mode="normal"/></filter></defs><g><!--class ente--><rect fill="#FEFECE" filter="url(#f13u7d4myfrwli)" height="48" id="ente" style="stroke: #A80036; stroke-width: 1.5;" width="108" x="274" y="8"/><ellipse cx="289" cy="24" fill="#ADD1B2" rx="11" ry="11" style="stroke: #A80036; stroke-width: 1.0;"/><path d="M291.7656,19.875 Q291.9219,19.6563 292.1094,19.5469 Q292.2969,19.4375 292.5156,19.4375 Q292.8906,19.4375 293.125,19.6953 Q293.3594,19.9531 293.3594,20.5625 L293.3594,22.0156 Q293.3594,22.625 293.125,22.8906 Q292.8906,23.1563 292.5156,23.1563 Q292.1719,23.1563 291.9688,22.9531 Q291.7656,22.7656 291.6563,22.25 Q291.6094,21.8906 291.4219,21.7031 Q291.0938,21.3281 290.4844,21.1094 Q289.875,20.8906 289.25,20.8906 Q288.4844,20.8906 287.8516,21.2188 Q287.2188,21.5469 286.7266,22.2969 Q286.2344,23.0469 286.2344,24.0781 L286.2344,25.1719 Q286.2344,26.4063 287.125,27.2266 Q288.0156,28.0469 289.6094,28.0469 Q290.5469,28.0469 291.2031,27.7969 Q291.5938,27.6406 292.0156,27.2031 Q292.2813,26.9375 292.4297,26.8594 Q292.5781,26.7813 292.7813,26.7813 Q293.1094,26.7813 293.3672,27.0391 Q293.625,27.2969 293.625,27.6406 Q293.625,27.9844 293.2813,28.3906 Q292.7813,28.9688 291.9844,29.2969 Q290.9063,29.75 289.6094,29.75 Q288.0938,29.75 286.8906,29.125 Q285.9063,28.625 285.2188,27.5547 Q284.5313,26.4844 284.5313,25.2031 L284.5313,24.0469 Q284.5313,22.7188 285.1484,21.5703 Q285.7656,20.4219 286.8594,19.8047 Q287.9531,19.1875 289.1875,19.1875 Q289.9219,19.1875 290.5703,19.3516 Q291.2188,19.5156 291.7656,19.875 Z "/><text fill="#000000" font-family="sans-serif" font-size="12" lengthAdjust="spacingAndGlyphs" textLength="76" x="303" y="28.9102">Ente / Entidad</text><line style="stroke: #A80036; stroke-width: 1.5;" x1="275" x2="381" y1="40" y2="40"/><line style="stroke: #A80036; stroke-width: 1.5;" x1="275" x2="381" y1="48" y2="48"/><!--class propiedad--><rect fill="#FEFECE" filter="url(#f13u7d4myfrwli)" height="48" id="propiedad" style="stroke: #A80036; stroke-width: 1.5;" width="89" x="283.5" y="117"/><ellipse cx="298.5" cy="133" fill="#ADD1B2" rx="11" ry="11" style="stroke: #A80036; stroke-width: 1.0;"/><path d="M301.2656,128.875 Q301.4219,128.6563 301.6094,128.5469 Q301.7969,128.4375 302.0156,128.4375 Q302.3906,128.4375 302.625,128.6953 Q302.8594,128.9531 302.8594,129.5625 L302.8594,131.0156 Q302.8594,131.625 302.625,131.8906 Q302.3906,132.1563 302.0156,132.1563 Q301.6719,132.1563 301.4688,131.9531 Q301.2656,131.7656 301.1563,131.25 Q301.1094,130.8906 300.9219,130.7031 Q300.5938,130.3281 299.9844,130.1094 Q299.375,129.8906 298.75,129.8906 Q297.9844,129.8906 297.3516,130.2188 Q296.7188,130.5469 296.2266,131.2969 Q295.7344,132.0469 295.7344,133.0781 L295.7344,134.1719 Q295.7344,135.4063 296.625,136.2266 Q297.5156,137.0469 299.1094,137.0469 Q300.0469,137.0469 300.7031,136.7969 Q301.0938,136.6406 301.5156,136.2031 Q301.7813,135.9375 301.9297,135.8594 Q302.0781,135.7813 302.2813,135.7813 Q302.6094,135.7813 302.8672,136.0391 Q303.125,136.2969 303.125,136.6406 Q303.125,136.9844 302.7813,137.3906 Q302.2813,137.9688 301.4844,138.2969 Q300.4063,138.75 299.1094,138.75 Q297.5938,138.75 296.3906,138.125 Q295.4063,137.625 294.7188,136.5547 Q294.0313,135.4844 294.0313,134.2031 L294.0313,133.0469 Q294.0313,131.7188 294.6484,130.5703 Q295.2656,129.4219 296.3594,128.8047 Q297.4531,128.1875 298.6875,128.1875 Q299.4219,128.1875 300.0703,128.3516 Q300.7188,128.5156 301.2656,128.875 Z "/><text fill="#000000" font-family="sans-serif" font-size="12" lengthAdjust="spacingAndGlyphs" textLength="57" x="312.5" y="137.9102">Propiedad</text><line style="stroke: #A80036; stroke-width: 1.5;" x1="284.5" x2="371.5" y1="149" y2="149"/><line style="stroke: #A80036; stroke-width: 1.5;" x1="284.5" x2="371.5" y1="157" y2="157"/><!--class valor--><rect fill="#FEFECE" filter="url(#f13u7d4myfrwli)" height="48" id="valor" style="stroke: #A80036; stroke-width: 1.5;" width="60" x="236" y="226"/><ellipse cx="251" cy="242" fill="#ADD1B2" rx="11" ry="11" style="stroke: #A80036; stroke-width: 1.0;"/><path d="M253.7656,237.875 Q253.9219,237.6563 254.1094,237.5469 Q254.2969,237.4375 254.5156,237.4375 Q254.8906,237.4375 255.125,237.6953 Q255.3594,237.9531 255.3594,238.5625 L255.3594,240.0156 Q255.3594,240.625 255.125,240.8906 Q254.8906,241.1563 254.5156,241.1563 Q254.1719,241.1563 253.9688,240.9531 Q253.7656,240.7656 253.6563,240.25 Q253.6094,239.8906 253.4219,239.7031 Q253.0938,239.3281 252.4844,239.1094 Q251.875,238.8906 251.25,238.8906 Q250.4844,238.8906 249.8516,239.2188 Q249.2188,239.5469 248.7266,240.2969 Q248.2344,241.0469 248.2344,242.0781 L248.2344,243.1719 Q248.2344,244.4063 249.125,245.2266 Q250.0156,246.0469 251.6094,246.0469 Q252.5469,246.0469 253.2031,245.7969 Q253.5938,245.6406 254.0156,245.2031 Q254.2813,244.9375 254.4297,244.8594 Q254.5781,244.7813 254.7813,244.7813 Q255.1094,244.7813 255.3672,245.0391 Q255.625,245.2969 255.625,245.6406 Q255.625,245.9844 255.2813,246.3906 Q254.7813,246.9688 253.9844,247.2969 Q252.9063,247.75 251.6094,247.75 Q250.0938,247.75 248.8906,247.125 Q247.9063,246.625 247.2188,245.5547 Q246.5313,244.4844 246.5313,243.2031 L246.5313,242.0469 Q246.5313,240.7188 247.1484,239.5703 Q247.7656,238.4219 248.8594,237.8047 Q249.9531,237.1875 251.1875,237.1875 Q251.9219,237.1875 252.5703,237.3516 Q253.2188,237.5156 253.7656,237.875 Z "/><text fill="#000000" font-family="sans-serif" font-size="12" lengthAdjust="spacingAndGlyphs" textLength="28" x="265" y="246.9102">Valor</text><line style="stroke: #A80036; stroke-width: 1.5;" x1="237" x2="295" y1="258" y2="258"/><line style="stroke: #A80036; stroke-width: 1.5;" x1="237" x2="295" y1="266" y2="266"/><!--class representacion--><rect fill="#FEFECE" filter="url(#f13u7d4myfrwli)" height="48" id="representacion" style="stroke: #A80036; stroke-width: 1.5;" width="120" x="158" y="352"/><ellipse cx="173" cy="368" fill="#ADD1B2" rx="11" ry="11" style="stroke: #A80036; stroke-width: 1.0;"/><path d="M175.7656,363.875 Q175.9219,363.6563 176.1094,363.5469 Q176.2969,363.4375 176.5156,363.4375 Q176.8906,363.4375 177.125,363.6953 Q177.3594,363.9531 177.3594,364.5625 L177.3594,366.0156 Q177.3594,366.625 177.125,366.8906 Q176.8906,367.1563 176.5156,367.1563 Q176.1719,367.1563 175.9688,366.9531 Q175.7656,366.7656 175.6563,366.25 Q175.6094,365.8906 175.4219,365.7031 Q175.0938,365.3281 174.4844,365.1094 Q173.875,364.8906 173.25,364.8906 Q172.4844,364.8906 171.8516,365.2188 Q171.2188,365.5469 170.7266,366.2969 Q170.2344,367.0469 170.2344,368.0781 L170.2344,369.1719 Q170.2344,370.4063 171.125,371.2266 Q172.0156,372.0469 173.6094,372.0469 Q174.5469,372.0469 175.2031,371.7969 Q175.5938,371.6406 176.0156,371.2031 Q176.2813,370.9375 176.4297,370.8594 Q176.5781,370.7813 176.7813,370.7813 Q177.1094,370.7813 177.3672,371.0391 Q177.625,371.2969 177.625,371.6406 Q177.625,371.9844 177.2813,372.3906 Q176.7813,372.9688 175.9844,373.2969 Q174.9063,373.75 173.6094,373.75 Q172.0938,373.75 170.8906,373.125 Q169.9063,372.625 169.2188,371.5547 Q168.5313,370.4844 168.5313,369.2031 L168.5313,368.0469 Q168.5313,366.7188 169.1484,365.5703 Q169.7656,364.4219 170.8594,363.8047 Q171.9531,363.1875 173.1875,363.1875 Q173.9219,363.1875 174.5703,363.3516 Q175.2188,363.5156 175.7656,363.875 Z "/><text fill="#000000" font-family="sans-serif" font-size="12" lengthAdjust="spacingAndGlyphs" textLength="88" x="187" y="372.9102">Representación</text><line style="stroke: #A80036; stroke-width: 1.5;" x1="159" x2="277" y1="384" y2="384"/><line style="stroke: #A80036; stroke-width: 1.5;" x1="159" x2="277" y1="392" y2="392"/><!--class romano--><rect fill="#FEFECE" filter="url(#f13u7d4myfrwli)" height="48" id="romano" style="stroke: #A80036; stroke-width: 1.5;" width="128" x="6" y="461"/><ellipse cx="21" cy="477" fill="#ADD1B2" rx="11" ry="11" style="stroke: #A80036; stroke-width: 1.0;"/><path d="M23.7656,472.875 Q23.9219,472.6563 24.1094,472.5469 Q24.2969,472.4375 24.5156,472.4375 Q24.8906,472.4375 25.125,472.6953 Q25.3594,472.9531 25.3594,473.5625 L25.3594,475.0156 Q25.3594,475.625 25.125,475.8906 Q24.8906,476.1563 24.5156,476.1563 Q24.1719,476.1563 23.9688,475.9531 Q23.7656,475.7656 23.6563,475.25 Q23.6094,474.8906 23.4219,474.7031 Q23.0938,474.3281 22.4844,474.1094 Q21.875,473.8906 21.25,473.8906 Q20.4844,473.8906 19.8516,474.2188 Q19.2188,474.5469 18.7266,475.2969 Q18.2344,476.0469 18.2344,477.0781 L18.2344,478.1719 Q18.2344,479.4063 19.125,480.2266 Q20.0156,481.0469 21.6094,481.0469 Q22.5469,481.0469 23.2031,480.7969 Q23.5938,480.6406 24.0156,480.2031 Q24.2813,479.9375 24.4297,479.8594 Q24.5781,479.7813 24.7813,479.7813 Q25.1094,479.7813 25.3672,480.0391 Q25.625,480.2969 25.625,480.6406 Q25.625,480.9844 25.2813,481.3906 Q24.7813,481.9688 23.9844,482.2969 Q22.9063,482.75 21.6094,482.75 Q20.0938,482.75 18.8906,482.125 Q17.9063,481.625 17.2188,480.5547 Q16.5313,479.4844 16.5313,478.2031 L16.5313,477.0469 Q16.5313,475.7188 17.1484,474.5703 Q17.7656,473.4219 18.8594,472.8047 Q19.9531,472.1875 21.1875,472.1875 Q21.9219,472.1875 22.5703,472.3516 Q23.2188,472.5156 23.7656,472.875 Z "/><text fill="#000000" font-family="sans-serif" font-size="12" lengthAdjust="spacingAndGlyphs" textLength="96" x="35" y="481.9102">Número Romano</text><line style="stroke: #A80036; stroke-width: 1.5;" x1="7" x2="133" y1="493" y2="493"/><line style="stroke: #A80036; stroke-width: 1.5;" x1="7" x2="133" y1="501" y2="501"/><!--class decimal--><rect fill="#FEFECE" filter="url(#f13u7d4myfrwli)" height="48" id="decimal" style="stroke: #A80036; stroke-width: 1.5;" width="98" x="169" y="461"/><ellipse cx="184" cy="477" fill="#ADD1B2" rx="11" ry="11" style="stroke: #A80036; stroke-width: 1.0;"/><path d="M186.7656,472.875 Q186.9219,472.6563 187.1094,472.5469 Q187.2969,472.4375 187.5156,472.4375 Q187.8906,472.4375 188.125,472.6953 Q188.3594,472.9531 188.3594,473.5625 L188.3594,475.0156 Q188.3594,475.625 188.125,475.8906 Q187.8906,476.1563 187.5156,476.1563 Q187.1719,476.1563 186.9688,475.9531 Q186.7656,475.7656 186.6563,475.25 Q186.6094,474.8906 186.4219,474.7031 Q186.0938,474.3281 185.4844,474.1094 Q184.875,473.8906 184.25,473.8906 Q183.4844,473.8906 182.8516,474.2188 Q182.2188,474.5469 181.7266,475.2969 Q181.2344,476.0469 181.2344,477.0781 L181.2344,478.1719 Q181.2344,479.4063 182.125,480.2266 Q183.0156,481.0469 184.6094,481.0469 Q185.5469,481.0469 186.2031,480.7969 Q186.5938,480.6406 187.0156,480.2031 Q187.2813,479.9375 187.4297,479.8594 Q187.5781,479.7813 187.7813,479.7813 Q188.1094,479.7813 188.3672,480.0391 Q188.625,480.2969 188.625,480.6406 Q188.625,480.9844 188.2813,481.3906 Q187.7813,481.9688 186.9844,482.2969 Q185.9063,482.75 184.6094,482.75 Q183.0938,482.75 181.8906,482.125 Q180.9063,481.625 180.2188,480.5547 Q179.5313,479.4844 179.5313,478.2031 L179.5313,477.0469 Q179.5313,475.7188 180.1484,474.5703 Q180.7656,473.4219 181.8594,472.8047 Q182.9531,472.1875 184.1875,472.1875 Q184.9219,472.1875 185.5703,472.3516 Q186.2188,472.5156 186.7656,472.875 Z "/><text fill="#000000" font-family="sans-serif" font-size="12" lengthAdjust="spacingAndGlyphs" textLength="66" x="198" y="481.9102">Indoarábigo</text><line style="stroke: #A80036; stroke-width: 1.5;" x1="170" x2="266" y1="493" y2="493"/><line style="stroke: #A80036; stroke-width: 1.5;" x1="170" x2="266" y1="501" y2="501"/><!--class binario--><rect fill="#FEFECE" filter="url(#f13u7d4myfrwli)" height="48" id="binario" style="stroke: #A80036; stroke-width: 1.5;" width="71" x="302.5" y="461"/><ellipse cx="317.5" cy="477" fill="#ADD1B2" rx="11" ry="11" style="stroke: #A80036; stroke-width: 1.0;"/><path d="M320.2656,472.875 Q320.4219,472.6563 320.6094,472.5469 Q320.7969,472.4375 321.0156,472.4375 Q321.3906,472.4375 321.625,472.6953 Q321.8594,472.9531 321.8594,473.5625 L321.8594,475.0156 Q321.8594,475.625 321.625,475.8906 Q321.3906,476.1563 321.0156,476.1563 Q320.6719,476.1563 320.4688,475.9531 Q320.2656,475.7656 320.1563,475.25 Q320.1094,474.8906 319.9219,474.7031 Q319.5938,474.3281 318.9844,474.1094 Q318.375,473.8906 317.75,473.8906 Q316.9844,473.8906 316.3516,474.2188 Q315.7188,474.5469 315.2266,475.2969 Q314.7344,476.0469 314.7344,477.0781 L314.7344,478.1719 Q314.7344,479.4063 315.625,480.2266 Q316.5156,481.0469 318.1094,481.0469 Q319.0469,481.0469 319.7031,480.7969 Q320.0938,480.6406 320.5156,480.2031 Q320.7813,479.9375 320.9297,479.8594 Q321.0781,479.7813 321.2813,479.7813 Q321.6094,479.7813 321.8672,480.0391 Q322.125,480.2969 322.125,480.6406 Q322.125,480.9844 321.7813,481.3906 Q321.2813,481.9688 320.4844,482.2969 Q319.4063,482.75 318.1094,482.75 Q316.5938,482.75 315.3906,482.125 Q314.4063,481.625 313.7188,480.5547 Q313.0313,479.4844 313.0313,478.2031 L313.0313,477.0469 Q313.0313,475.7188 313.6484,474.5703 Q314.2656,473.4219 315.3594,472.8047 Q316.4531,472.1875 317.6875,472.1875 Q318.4219,472.1875 319.0703,472.3516 Q319.7188,472.5156 320.2656,472.875 Z "/><text fill="#000000" font-family="sans-serif" font-size="12" lengthAdjust="spacingAndGlyphs" textLength="39" x="331.5" y="481.9102">Binario</text><line style="stroke: #A80036; stroke-width: 1.5;" x1="303.5" x2="372.5" y1="493" y2="493"/><line style="stroke: #A80036; stroke-width: 1.5;" x1="303.5" x2="372.5" y1="501" y2="501"/><!--class unidad--><rect fill="#FEFECE" filter="url(#f13u7d4myfrwli)" height="48" id="unidad" style="stroke: #A80036; stroke-width: 1.5;" width="72" x="313" y="352"/><ellipse cx="328" cy="368" fill="#ADD1B2" rx="11" ry="11" style="stroke: #A80036; stroke-width: 1.0;"/><path d="M330.7656,363.875 Q330.9219,363.6563 331.1094,363.5469 Q331.2969,363.4375 331.5156,363.4375 Q331.8906,363.4375 332.125,363.6953 Q332.3594,363.9531 332.3594,364.5625 L332.3594,366.0156 Q332.3594,366.625 332.125,366.8906 Q331.8906,367.1563 331.5156,367.1563 Q331.1719,367.1563 330.9688,366.9531 Q330.7656,366.7656 330.6563,366.25 Q330.6094,365.8906 330.4219,365.7031 Q330.0938,365.3281 329.4844,365.1094 Q328.875,364.8906 328.25,364.8906 Q327.4844,364.8906 326.8516,365.2188 Q326.2188,365.5469 325.7266,366.2969 Q325.2344,367.0469 325.2344,368.0781 L325.2344,369.1719 Q325.2344,370.4063 326.125,371.2266 Q327.0156,372.0469 328.6094,372.0469 Q329.5469,372.0469 330.2031,371.7969 Q330.5938,371.6406 331.0156,371.2031 Q331.2813,370.9375 331.4297,370.8594 Q331.5781,370.7813 331.7813,370.7813 Q332.1094,370.7813 332.3672,371.0391 Q332.625,371.2969 332.625,371.6406 Q332.625,371.9844 332.2813,372.3906 Q331.7813,372.9688 330.9844,373.2969 Q329.9063,373.75 328.6094,373.75 Q327.0938,373.75 325.8906,373.125 Q324.9063,372.625 324.2188,371.5547 Q323.5313,370.4844 323.5313,369.2031 L323.5313,368.0469 Q323.5313,366.7188 324.1484,365.5703 Q324.7656,364.4219 325.8594,363.8047 Q326.9531,363.1875 328.1875,363.1875 Q328.9219,363.1875 329.5703,363.3516 Q330.2188,363.5156 330.7656,363.875 Z "/><text fill="#000000" font-family="sans-serif" font-size="12" lengthAdjust="spacingAndGlyphs" textLength="40" x="342" y="372.9102">Unidad</text><line style="stroke: #A80036; stroke-width: 1.5;" x1="314" x2="384" y1="384" y2="384"/><line style="stroke: #A80036; stroke-width: 1.5;" x1="314" x2="384" y1="392" y2="392"/><!--link ente to propiedad--><path d="M328,69.302 C328,80.354 328,92.502 328,103.563 " fill="none" id="ente-propiedad" style="stroke: #A80036; stroke-width: 1.0;"/><polygon fill="#A80036" points="328,116.828,332,107.828,328,111.828,324,107.828,328,116.828" style="stroke: #A80036; stroke-width: 1.0;"/><line style="stroke: #A80036; stroke-width: 1.0;" x1="328" x2="328" y1="111.828" y2="103.828"/><polygon fill="#A80036" points="328,56.217,324,62.217,328,68.217,332,62.217,328,56.217" style="stroke: #A80036; stroke-width: 1.0;"/><!--link propiedad to valor--><path d="M307.789,176.88 C300.814,188.917 293.006,202.392 286.045,214.407 " fill="none" id="propiedad-valor" style="stroke: #A80036; stroke-width: 1.0;"/><polygon fill="#A80036" points="279.427,225.828,287.4002,220.0463,281.9338,221.5018,280.4783,216.0354,279.427,225.828" style="stroke: #A80036; stroke-width: 1.0;"/><line style="stroke: #A80036; stroke-width: 1.0;" x1="281.9338" x2="285.9445" y1="221.5018" y2="214.58"/><polygon fill="#A80036" points="314.547,165.217,308.0778,168.4027,308.5303,175.5996,314.9995,172.4139,314.547,165.217" style="stroke: #A80036; stroke-width: 1.0;"/><!--link propiedad to unidad--><path d="M331.284,178.432 C335.229,222.203 341.806,295.181 345.74,338.833 " fill="none" id="propiedad-unidad" style="stroke: #A80036; stroke-width: 1.0;"/><polygon fill="#A80036" points="346.918,351.901,350.0939,342.5782,346.4691,346.9212,342.1262,343.2964,346.918,351.901" style="stroke: #A80036; stroke-width: 1.0;"/><line style="stroke: #A80036; stroke-width: 1.0;" x1="346.4691" x2="345.751" y1="346.9212" y2="338.9535"/><polygon fill="#A80036" points="330.09,165.193,326.6449,171.5279,331.1674,177.1445,334.6125,170.8096,330.09,165.193" style="stroke: #A80036; stroke-width: 1.0;"/><!--link valor to unidad--><path d="M264.792,274.266 C265.067,288.922 267.404,307.705 276,322 C283.763,334.91 295.998,345.601 308.249,353.918 " fill="none" id="valor-unidad" style="stroke: #A80036; stroke-width: 1.0;"/><polygon fill="#A80036" points="312.755,356.874,307.4235,348.593,308.5742,354.1316,303.0356,355.2822,312.755,356.874" style="stroke: #A80036; stroke-width: 1.0;"/><text fill="#000000" font-family="sans-serif" font-size="13" lengthAdjust="spacingAndGlyphs" textLength="45" x="277" y="318.4951">relación</text><!--link valor to representacion--><path d="M254.272,274.199 C249.845,283.367 244.933,294.068 241,304 C235.526,317.826 230.337,333.525 226.278,346.638 " fill="none" id="valor-representacion" style="stroke: #A80036; stroke-width: 1.0;"/><polygon fill="#A80036" points="224.724,351.714,231.1841,344.2798,226.1881,346.9332,223.5347,341.9372,224.724,351.714" style="stroke: #A80036; stroke-width: 1.0;"/><!--link representacion to romano--><path d="M169.429,412.1158 C147.303,428.1123 121.724,446.6052 102.0511,460.8279 " fill="none" id="representacion-romano" style="stroke: #A80036; stroke-width: 1.0;"/><polygon fill="none" points="165.577,406.263,185.886,400.217,173.78,417.608,165.577,406.263" style="stroke: #A80036; stroke-width: 1.0;"/><!--link representacion to decimal--><path d="M218,420.5778 C218,434.3622 218,449.0574 218,460.8279 " fill="none" id="representacion-decimal" style="stroke: #A80036; stroke-width: 1.0;"/><polygon fill="none" points="211,420.2174,218,400.217,225,420.2174,211,420.2174" style="stroke: #A80036; stroke-width: 1.0;"/><!--link representacion to binario--><path d="M258.98,413.5406 C276.544,429.2018 296.533,447.0255 312.013,460.8279 " fill="none" id="representacion-binario" style="stroke: #A80036; stroke-width: 1.0;"/><polygon fill="none" points="254.307,418.7525,244.038,400.217,263.624,408.303,254.307,418.7525" style="stroke: #A80036; stroke-width: 1.0;"/><!--
@startuml

class "Ente / Entidad" as ente
class "Propiedad" as propiedad
class "Valor" as valor
class "Representación" as representacion
class "Número Romano" as romano
class "Indoarábigo" as decimal
class "Binario" as binario
class "Unidad" as unidad

ente *-down-> propiedad
propiedad *-down-> valor
propiedad *-down-> unidad
valor - -> unidad : relación
valor - -> representacion
representacion <|-down- romano
representacion <|-down- decimal
representacion <|-down- binario

@enduml

PlantUML version 1.2019.05(Sat Apr 20 18:45:36 CEST 2019)
(GPL source distribution)
Java Runtime: OpenJDK Runtime Environment
JVM: OpenJDK 64-Bit Server VM
Java Version: 1.8.0_222-b10
Operating System: Windows 10
OS Version: 10.0
Default Encoding: windows-1252
Language: es
Country: ES
--></g></svg>